<mxfile host="65bd71144e">
    <diagram id="b-QZY7A2Yf38U9uRUEZ3" name="Page-1">
        <mxGraphModel dx="5308" dy="4354" grid="1" gridSize="10" guides="1" tooltips="1" connect="1" arrows="1" fold="1" page="1" pageScale="1" pageWidth="1100" pageHeight="850" math="0" shadow="0">
            <root>
                <mxCell id="0"/>
                <mxCell id="1" parent="0"/>
                <mxCell id="772" value="" style="rounded=1;whiteSpace=wrap;html=1;fillColor=#67AB9F;opacity=40;strokeColor=#000000;glass=0;strokeWidth=3;" parent="1" vertex="1">
                    <mxGeometry x="1390" y="430" width="2210" height="1790" as="geometry"/>
                </mxCell>
                <mxCell id="3967" value="" style="rounded=1;whiteSpace=wrap;html=1;fillColor=#FFCCCC;opacity=40;strokeColor=#000000;glass=0;strokeWidth=3;" vertex="1" parent="1">
                    <mxGeometry x="2080" y="470" width="420" height="1340" as="geometry"/>
                </mxCell>
                <mxCell id="773" value="Weight&amp;nbsp;&lt;br style=&quot;font-size: 50px&quot;&gt;Multiplication &amp;amp;&amp;nbsp;&lt;span style=&quot;font-size: 50px&quot;&gt;Partial Sum Systolic Reduction&lt;/span&gt;" style="text;html=1;strokeColor=none;fillColor=none;align=left;verticalAlign=middle;whiteSpace=wrap;rounded=0;glass=0;fontSize=50;fontStyle=1" parent="1" vertex="1">
                    <mxGeometry x="2020" y="1840" width="520" height="180" as="geometry"/>
                </mxCell>
                <mxCell id="776" value="" style="rounded=1;whiteSpace=wrap;html=1;fillColor=#FFF2CC;opacity=40;strokeColor=#000000;glass=0;strokeWidth=3;" parent="1" vertex="1">
                    <mxGeometry x="1840" y="261" width="1760" height="170" as="geometry"/>
                </mxCell>
                <mxCell id="777" value="" style="rounded=1;whiteSpace=wrap;html=1;fillColor=#d5e8d4;opacity=40;strokeColor=#000000;glass=0;strokeWidth=3;" parent="1" vertex="1">
                    <mxGeometry x="1840" y="-335" width="1760" height="595" as="geometry"/>
                </mxCell>
                <mxCell id="779" value="" style="group;strokeWidth=3;strokeColor=#000000;" parent="1" vertex="1" connectable="0">
                    <mxGeometry x="2338.84" y="57" width="800" height="40" as="geometry"/>
                </mxCell>
                <mxCell id="780" value="" style="rounded=0;whiteSpace=wrap;html=1;fillColor=#CCFFFF;strokeWidth=3;strokeColor=#000000;" parent="779" vertex="1">
                    <mxGeometry width="800" height="40" as="geometry"/>
                </mxCell>
                <mxCell id="781" value="" style="group;strokeWidth=3;strokeColor=none;" parent="779" vertex="1" connectable="0">
                    <mxGeometry x="360.0049781659389" y="10" width="76.85589519650655" height="20" as="geometry"/>
                </mxCell>
                <mxCell id="782" value="" style="endArrow=none;html=1;rounded=0;strokeWidth=3;strokeColor=#000000;" parent="781" edge="1">
                    <mxGeometry width="50" height="50" relative="1" as="geometry">
                        <mxPoint as="sourcePoint"/>
                        <mxPoint x="29.888403687530325" as="targetPoint"/>
                    </mxGeometry>
                </mxCell>
                <mxCell id="783" value="" style="endArrow=none;html=1;rounded=0;strokeWidth=3;strokeColor=#000000;" parent="781" edge="1">
                    <mxGeometry width="50" height="50" relative="1" as="geometry">
                        <mxPoint x="29.888403687530325" as="sourcePoint"/>
                        <mxPoint x="46.96749150897623" y="20" as="targetPoint"/>
                    </mxGeometry>
                </mxCell>
                <mxCell id="784" value="" style="endArrow=none;html=1;rounded=0;strokeWidth=3;strokeColor=#000000;" parent="781" edge="1">
                    <mxGeometry width="50" height="50" relative="1" as="geometry">
                        <mxPoint x="29.888403687530325" y="20" as="sourcePoint"/>
                        <mxPoint x="46.96749150897623" as="targetPoint"/>
                    </mxGeometry>
                </mxCell>
                <mxCell id="785" value="" style="endArrow=none;html=1;rounded=0;strokeWidth=3;strokeColor=#000000;" parent="781" edge="1">
                    <mxGeometry width="50" height="50" relative="1" as="geometry">
                        <mxPoint x="46.96749150897623" as="sourcePoint"/>
                        <mxPoint x="76.85589519650655" as="targetPoint"/>
                    </mxGeometry>
                </mxCell>
                <mxCell id="786" value="" style="endArrow=none;html=1;rounded=0;strokeWidth=3;strokeColor=#000000;" parent="781" edge="1">
                    <mxGeometry width="50" height="50" relative="1" as="geometry">
                        <mxPoint x="46.96749150897623" y="20" as="sourcePoint"/>
                        <mxPoint x="76.85589519650655" y="20" as="targetPoint"/>
                    </mxGeometry>
                </mxCell>
                <mxCell id="787" value="" style="endArrow=none;html=1;rounded=0;strokeWidth=3;strokeColor=#000000;" parent="781" edge="1">
                    <mxGeometry width="50" height="50" relative="1" as="geometry">
                        <mxPoint y="20" as="sourcePoint"/>
                        <mxPoint x="29.888403687530325" y="20" as="targetPoint"/>
                    </mxGeometry>
                </mxCell>
                <mxCell id="789" style="edgeStyle=orthogonalEdgeStyle;rounded=0;orthogonalLoop=1;jettySize=auto;html=1;entryX=0.388;entryY=0.003;entryDx=0;entryDy=0;entryPerimeter=0;strokeWidth=3;strokeColor=#000000;" parent="1" source="790" edge="1">
                    <mxGeometry relative="1" as="geometry">
                        <mxPoint x="2585.76" y="57.11999999999898" as="targetPoint"/>
                    </mxGeometry>
                </mxCell>
                <mxCell id="790" value="C0" style="whiteSpace=wrap;html=1;aspect=fixed;fillColor=#d5e8d4;strokeColor=#000000;strokeWidth=3;fontSize=50;fontStyle=1" parent="1" vertex="1">
                    <mxGeometry x="2515.84" y="-193" width="140" height="140" as="geometry"/>
                </mxCell>
                <mxCell id="3972" style="edgeStyle=none;jumpStyle=none;html=1;startArrow=none;startFill=0;endArrow=none;endFill=0;startSize=5;endSize=0;strokeColor=#B09500;strokeWidth=4;fillColor=#e3c800;" edge="1" parent="1" source="797">
                    <mxGeometry relative="1" as="geometry">
                        <mxPoint x="2320" y="490" as="targetPoint"/>
                        <Array as="points">
                            <mxPoint x="2320" y="360"/>
                        </Array>
                    </mxGeometry>
                </mxCell>
                <mxCell id="3979" style="edgeStyle=none;jumpStyle=none;html=1;entryX=0.208;entryY=0.914;entryDx=0;entryDy=0;entryPerimeter=0;startArrow=none;startFill=0;endArrow=none;endFill=0;startSize=5;endSize=0;strokeColor=#B09500;strokeWidth=4;fillColor=#e3c800;" edge="1" parent="1" source="797" target="780">
                    <mxGeometry relative="1" as="geometry">
                        <Array as="points">
                            <mxPoint x="2400" y="200"/>
                            <mxPoint x="2505" y="200"/>
                        </Array>
                    </mxGeometry>
                </mxCell>
                <mxCell id="797" value="&lt;span style=&quot;font-family: &amp;#34;arial unicode ms&amp;#34; , &amp;#34;lucida sans unicode&amp;#34; , sans-serif ; font-size: 34px ; font-weight: 400&quot;&gt;Î”(L-3)&lt;/span&gt;" style="whiteSpace=wrap;html=1;aspect=fixed;fillColor=#fff2cc;strokeColor=#000000;rotation=90;strokeWidth=4;horizontal=0;fontStyle=1" parent="1" vertex="1">
                    <mxGeometry x="2350" y="310" width="100" height="100" as="geometry"/>
                </mxCell>
                <mxCell id="803" style="edgeStyle=orthogonalEdgeStyle;rounded=0;orthogonalLoop=1;jettySize=auto;html=1;entryX=0.388;entryY=0.003;entryDx=0;entryDy=0;entryPerimeter=0;strokeWidth=3;strokeColor=#000000;" parent="1" source="804" edge="1">
                    <mxGeometry relative="1" as="geometry">
                        <mxPoint x="2778.3600000000006" y="57.11999999999898" as="targetPoint"/>
                    </mxGeometry>
                </mxCell>
                <mxCell id="804" value="C1" style="whiteSpace=wrap;html=1;aspect=fixed;fillColor=#d5e8d4;strokeColor=#000000;strokeWidth=3;fontSize=50;fontStyle=1" parent="1" vertex="1">
                    <mxGeometry x="2708.44" y="-193" width="140" height="140" as="geometry"/>
                </mxCell>
                <mxCell id="821" value="" style="endArrow=none;dashed=1;html=1;rounded=0;strokeWidth=10;jumpStyle=arc;strokeColor=#000000;" parent="1" edge="1">
                    <mxGeometry width="50" height="50" relative="1" as="geometry">
                        <mxPoint x="2900" y="-124.09000000000015" as="sourcePoint"/>
                        <mxPoint x="3120" y="-124" as="targetPoint"/>
                    </mxGeometry>
                </mxCell>
                <mxCell id="822" value="L3: Channel Memory" style="text;html=1;strokeColor=none;fillColor=none;align=left;verticalAlign=middle;whiteSpace=wrap;rounded=0;glass=0;fontSize=45;fontStyle=1" parent="1" vertex="1">
                    <mxGeometry x="1860" y="56" width="270" height="190" as="geometry"/>
                </mxCell>
                <mxCell id="823" value="L2: Verticle Reuse Memory" style="text;html=1;strokeColor=none;fillColor=none;align=left;verticalAlign=middle;whiteSpace=wrap;rounded=0;glass=0;fontSize=45;fontStyle=1" parent="1" vertex="1">
                    <mxGeometry x="1860" y="281" width="380" height="130" as="geometry"/>
                </mxCell>
                <mxCell id="1955" value="" style="rounded=1;whiteSpace=wrap;html=1;fillColor=#e1d5e7;opacity=40;strokeColor=#9673a6;glass=0;strokeWidth=3;rotation=90;" parent="1" vertex="1">
                    <mxGeometry x="2999.41" y="1036.63" width="1650" height="423.59" as="geometry"/>
                </mxCell>
                <mxCell id="1956" value="F0 - F.." style="whiteSpace=wrap;html=1;aspect=fixed;fillColor=#e1d5e7;strokeColor=#9673a6;strokeWidth=3;rotation=90;fontSize=30;horizontal=0;fontStyle=1" parent="1" vertex="1">
                    <mxGeometry x="3818.68" y="485.92" width="160" height="160" as="geometry"/>
                </mxCell>
                <mxCell id="1957" value="OFmap Memory" style="text;html=1;strokeColor=none;fillColor=none;align=center;verticalAlign=middle;whiteSpace=wrap;rounded=0;glass=0;fontSize=45;fontStyle=1" parent="1" vertex="1">
                    <mxGeometry x="3694.4100000000003" y="1900" width="260" height="210.17" as="geometry"/>
                </mxCell>
                <mxCell id="1958" value="F4 - F.." style="whiteSpace=wrap;html=1;aspect=fixed;fillColor=#e1d5e7;strokeColor=#9673a6;strokeWidth=3;rotation=90;fontSize=30;horizontal=0;fontStyle=1" parent="1" vertex="1">
                    <mxGeometry x="3818.68" y="733.34" width="160" height="160" as="geometry"/>
                </mxCell>
                <mxCell id="1959" value="F8 - F.." style="whiteSpace=wrap;html=1;aspect=fixed;fillColor=#e1d5e7;strokeColor=#9673a6;strokeWidth=3;rotation=90;fontSize=30;horizontal=0;fontStyle=1" parent="1" vertex="1">
                    <mxGeometry x="3818.68" y="965.92" width="160" height="160" as="geometry"/>
                </mxCell>
                <mxCell id="1983" value="" style="shape=curlyBracket;whiteSpace=wrap;html=1;rounded=1;fontSize=30;fontColor=#990000;strokeColor=#000000;fillColor=#FFD966;opacity=80;size=0.5;strokeWidth=6;" parent="1" vertex="1">
                    <mxGeometry x="1670" y="560" width="60" height="1470" as="geometry"/>
                </mxCell>
                <mxCell id="1984" value="&lt;font color=&quot;#000000&quot; size=&quot;1&quot;&gt;&lt;b style=&quot;font-size: 50px&quot;&gt;Filter Unroll Factor F&lt;/b&gt;&lt;/font&gt;" style="text;html=1;strokeColor=none;fillColor=none;align=center;verticalAlign=middle;whiteSpace=wrap;rounded=0;fontSize=30;fontColor=#990000;opacity=80;" parent="1" vertex="1">
                    <mxGeometry x="1430" y="1105" width="230" height="410" as="geometry"/>
                </mxCell>
                <mxCell id="1985" value="" style="shape=curlyBracket;whiteSpace=wrap;html=1;rounded=1;fontSize=30;fontColor=#990000;strokeColor=#000000;fillColor=#FFD966;opacity=80;size=0.5;strokeWidth=6;rotation=0;" parent="1" vertex="1">
                    <mxGeometry x="1940" y="577" width="60" height="1383" as="geometry"/>
                </mxCell>
                <mxCell id="1986" value="" style="shape=curlyBracket;whiteSpace=wrap;html=1;rounded=1;fontSize=30;fontColor=#990000;strokeColor=#000000;fillColor=#FFD966;opacity=80;size=0.5;strokeWidth=6;rotation=-90;" parent="1" vertex="1">
                    <mxGeometry x="2993.81" y="1588.73" width="60" height="983.63" as="geometry"/>
                </mxCell>
                <mxCell id="1987" value="&lt;font color=&quot;#000000&quot; size=&quot;1&quot;&gt;&lt;b style=&quot;font-size: 50px&quot;&gt;Kernel Unroll Factor K&lt;/b&gt;&lt;/font&gt;" style="text;html=1;strokeColor=none;fillColor=none;align=center;verticalAlign=middle;whiteSpace=wrap;rounded=0;fontSize=30;fontColor=#990000;opacity=80;rotation=0;" parent="1" vertex="1">
                    <mxGeometry x="1710" y="1315" width="230" height="30" as="geometry"/>
                </mxCell>
                <mxCell id="1988" value="&lt;font color=&quot;#000000&quot; size=&quot;1&quot;&gt;&lt;b style=&quot;font-size: 50px&quot;&gt;Channel Unroll Factor C&lt;/b&gt;&lt;/font&gt;" style="text;html=1;strokeColor=none;fillColor=none;align=center;verticalAlign=middle;whiteSpace=wrap;rounded=0;fontSize=30;fontColor=#990000;opacity=80;" parent="1" vertex="1">
                    <mxGeometry x="2703.81" y="2140" width="640" height="30" as="geometry"/>
                </mxCell>
                <mxCell id="2780" value="" style="endArrow=none;dashed=1;html=1;rounded=0;strokeWidth=10;jumpStyle=arc;strokeColor=#000000;" parent="1" edge="1">
                    <mxGeometry x="-1590.1900000000003" y="1792.9900000000002" width="50" height="50" as="geometry">
                        <mxPoint x="2599.81" y="1880.0000000000005" as="sourcePoint"/>
                        <mxPoint x="2599.81" y="2011" as="targetPoint"/>
                    </mxGeometry>
                </mxCell>
                <mxCell id="2782" value="F0 - F.." style="whiteSpace=wrap;html=1;aspect=fixed;fillColor=#e1d5e7;strokeColor=#9673a6;strokeWidth=3;rotation=90;fontSize=30;horizontal=0;fontStyle=1" parent="1" vertex="1">
                    <mxGeometry x="3818.68" y="1245.8300000000002" width="160" height="160" as="geometry"/>
                </mxCell>
                <mxCell id="2783" value="F4 - F.." style="whiteSpace=wrap;html=1;aspect=fixed;fillColor=#e1d5e7;strokeColor=#9673a6;strokeWidth=3;rotation=90;fontSize=30;horizontal=0;fontStyle=1" parent="1" vertex="1">
                    <mxGeometry x="3818.68" y="1493.2500000000002" width="160" height="160" as="geometry"/>
                </mxCell>
                <mxCell id="2784" value="F8 - F.." style="whiteSpace=wrap;html=1;aspect=fixed;fillColor=#e1d5e7;strokeColor=#9673a6;strokeWidth=3;rotation=90;fontSize=30;horizontal=0;fontStyle=1" parent="1" vertex="1">
                    <mxGeometry x="3818.68" y="1725.8300000000002" width="160" height="160" as="geometry"/>
                </mxCell>
                <mxCell id="2939" value="L1: 3x3 Broadcast&lt;br&gt;&amp;amp; 1x1 Channel Lines" style="text;html=1;strokeColor=none;fillColor=none;align=left;verticalAlign=middle;whiteSpace=wrap;rounded=0;glass=0;fontSize=43;fontStyle=1" parent="1" vertex="1">
                    <mxGeometry x="2116.25" y="1590" width="269.59" height="130" as="geometry"/>
                </mxCell>
                <mxCell id="3249" style="edgeStyle=orthogonalEdgeStyle;rounded=0;orthogonalLoop=1;jettySize=auto;html=1;fontSize=30;fontColor=#990000;startArrow=none;startFill=0;endArrow=classic;endFill=1;strokeWidth=5;exitX=1;exitY=0.5;exitDx=0;exitDy=0;" edge="1" parent="1" source="3250">
                    <mxGeometry relative="1" as="geometry">
                        <mxPoint x="2600.59" y="989" as="targetPoint"/>
                        <Array as="points">
                            <mxPoint x="2600.59" y="969"/>
                            <mxPoint x="2600.59" y="969"/>
                        </Array>
                    </mxGeometry>
                </mxCell>
                <mxCell id="3250" value="" style="ellipse;whiteSpace=wrap;html=1;aspect=fixed;fontSize=30;strokeColor=#000000;fillColor=#FFD966;opacity=80;rotation=90;" vertex="1" parent="1">
                    <mxGeometry x="2512.59" y="770" width="174.83" height="174.83" as="geometry"/>
                </mxCell>
                <mxCell id="3251" style="edgeStyle=none;jumpStyle=arc;html=1;entryX=0.5;entryY=1;entryDx=0;entryDy=0;strokeWidth=3;" edge="1" parent="1" source="3252" target="3257">
                    <mxGeometry relative="1" as="geometry"/>
                </mxCell>
                <mxCell id="3252" value="" style="ellipse;whiteSpace=wrap;html=1;aspect=fixed;fillColor=#67AB9F;strokeWidth=4;strokeColor=#000000;rotation=90;" vertex="1" parent="1">
                    <mxGeometry x="2528.44" y="830" width="40" height="40" as="geometry"/>
                </mxCell>
                <mxCell id="3253" value="" style="endArrow=none;html=1;rounded=0;strokeColor=#000000;strokeWidth=4;exitX=0;exitY=0;exitDx=0;exitDy=0;entryX=1;entryY=1;entryDx=0;entryDy=0;" edge="1" parent="1" source="3252" target="3252">
                    <mxGeometry width="50" height="50" relative="1" as="geometry">
                        <mxPoint x="2634.59" y="842" as="sourcePoint"/>
                        <mxPoint x="2665.59" y="867" as="targetPoint"/>
                    </mxGeometry>
                </mxCell>
                <mxCell id="3254" value="" style="endArrow=none;html=1;rounded=0;strokeColor=#000000;strokeWidth=4;exitX=0;exitY=1;exitDx=0;exitDy=0;entryX=1;entryY=0;entryDx=0;entryDy=0;" edge="1" parent="1" source="3252" target="3252">
                    <mxGeometry width="50" height="50" relative="1" as="geometry">
                        <mxPoint x="2689.59" y="798" as="sourcePoint"/>
                        <mxPoint x="2654.59" y="826" as="targetPoint"/>
                    </mxGeometry>
                </mxCell>
                <mxCell id="3255" style="edgeStyle=none;jumpStyle=arc;html=1;entryX=0;entryY=0.5;entryDx=0;entryDy=0;strokeWidth=3;" edge="1" parent="1" source="3256" target="3252">
                    <mxGeometry relative="1" as="geometry">
                        <Array as="points">
                            <mxPoint x="2548" y="804"/>
                        </Array>
                    </mxGeometry>
                </mxCell>
                <mxCell id="3256" value="" style="whiteSpace=wrap;html=1;aspect=fixed;fillColor=#dae8fc;strokeColor=#000000;strokeWidth=4;rotation=90;" vertex="1" parent="1">
                    <mxGeometry x="2568.44" y="790" width="27.5" height="27.5" as="geometry"/>
                </mxCell>
                <mxCell id="3265" style="edgeStyle=none;jumpStyle=arc;html=1;exitX=0;exitY=0.5;exitDx=0;exitDy=0;entryX=0;entryY=0.5;entryDx=0;entryDy=0;strokeWidth=3;startArrow=classic;startFill=1;endArrow=none;endFill=0;" edge="1" parent="1" source="3257" target="3250">
                    <mxGeometry relative="1" as="geometry">
                        <Array as="points">
                            <mxPoint x="2631" y="790"/>
                            <mxPoint x="2600" y="790"/>
                        </Array>
                    </mxGeometry>
                </mxCell>
                <mxCell id="3257" value="" style="ellipse;whiteSpace=wrap;html=1;aspect=fixed;fillColor=#e1d5e7;strokeColor=#000000;strokeWidth=4;rotation=90;" vertex="1" parent="1">
                    <mxGeometry x="2610" y="830" width="40" height="40" as="geometry"/>
                </mxCell>
                <mxCell id="3258" value="" style="endArrow=none;html=1;rounded=0;strokeColor=#000000;entryX=0.5;entryY=0;entryDx=0;entryDy=0;exitX=0.5;exitY=1;exitDx=0;exitDy=0;strokeWidth=4;" edge="1" parent="1" source="3257" target="3257">
                    <mxGeometry width="50" height="50" relative="1" as="geometry">
                        <mxPoint x="2619.59" y="837" as="sourcePoint"/>
                        <mxPoint x="2669.59" y="887" as="targetPoint"/>
                    </mxGeometry>
                </mxCell>
                <mxCell id="3259" value="" style="endArrow=none;html=1;rounded=0;strokeColor=#000000;entryX=0;entryY=0.5;entryDx=0;entryDy=0;exitX=1;exitY=0.5;exitDx=0;exitDy=0;strokeWidth=4;" edge="1" parent="1" source="3257" target="3257">
                    <mxGeometry width="50" height="50" relative="1" as="geometry">
                        <mxPoint x="2719.59" y="887" as="sourcePoint"/>
                        <mxPoint x="2779.59" y="887" as="targetPoint"/>
                    </mxGeometry>
                </mxCell>
                <mxCell id="3260" style="edgeStyle=orthogonalEdgeStyle;rounded=1;orthogonalLoop=1;jettySize=auto;html=1;exitX=1;exitY=0.5;exitDx=0;exitDy=0;entryX=1;entryY=0.5;entryDx=0;entryDy=0;fontSize=30;fontColor=#990000;startArrow=none;startFill=0;endArrow=classic;endFill=1;strokeWidth=4;endSize=0;startSize=6;" edge="1" parent="1" source="3261" target="3250">
                    <mxGeometry relative="1" as="geometry">
                        <Array as="points">
                            <mxPoint x="2630" y="920"/>
                            <mxPoint x="2600" y="920"/>
                        </Array>
                    </mxGeometry>
                </mxCell>
                <mxCell id="3261" value="" style="rounded=0;whiteSpace=wrap;html=1;glass=0;strokeColor=#000000;strokeWidth=4;fillColor=#FFD966;rotation=90;" vertex="1" parent="1">
                    <mxGeometry x="2620" y="880" width="20" height="36" as="geometry"/>
                </mxCell>
                <mxCell id="3262" value="" style="endArrow=none;html=1;rounded=0;startSize=1;endSize=1;strokeColor=#000000;strokeWidth=4;jumpStyle=none;jumpSize=6;" edge="1" parent="1">
                    <mxGeometry width="50" height="50" relative="1" as="geometry">
                        <mxPoint x="2612.59" y="887.1700000000001" as="sourcePoint"/>
                        <mxPoint x="2622.59" y="897.1700000000001" as="targetPoint"/>
                    </mxGeometry>
                </mxCell>
                <mxCell id="3263" value="" style="endArrow=none;html=1;rounded=0;startSize=1;endSize=1;strokeColor=#000000;strokeWidth=4;jumpStyle=none;jumpSize=6;" edge="1" parent="1">
                    <mxGeometry width="50" height="50" relative="1" as="geometry">
                        <mxPoint x="2622.59" y="897.1700000000001" as="sourcePoint"/>
                        <mxPoint x="2612.59" y="907.1700000000001" as="targetPoint"/>
                    </mxGeometry>
                </mxCell>
                <mxCell id="3264" style="edgeStyle=orthogonalEdgeStyle;rounded=0;jumpStyle=none;jumpSize=6;orthogonalLoop=1;jettySize=auto;html=1;entryX=0;entryY=0.5;entryDx=0;entryDy=0;startArrow=none;startFill=0;endArrow=classic;endFill=1;startSize=1;endSize=1;strokeColor=#000000;strokeWidth=4;" edge="1" parent="1" source="3257" target="3261">
                    <mxGeometry relative="1" as="geometry"/>
                </mxCell>
                <mxCell id="3266" style="edgeStyle=orthogonalEdgeStyle;rounded=0;orthogonalLoop=1;jettySize=auto;html=1;fontSize=30;fontColor=#990000;startArrow=none;startFill=0;endArrow=classic;endFill=1;strokeWidth=5;exitX=1;exitY=0.5;exitDx=0;exitDy=0;" edge="1" parent="1" source="3267">
                    <mxGeometry relative="1" as="geometry">
                        <mxPoint x="2600.59" y="770" as="targetPoint"/>
                        <Array as="points">
                            <mxPoint x="2600.59" y="750"/>
                            <mxPoint x="2600.59" y="750"/>
                        </Array>
                    </mxGeometry>
                </mxCell>
                <mxCell id="3267" value="" style="ellipse;whiteSpace=wrap;html=1;aspect=fixed;fontSize=30;strokeColor=#000000;fillColor=#FFD966;opacity=80;rotation=90;" vertex="1" parent="1">
                    <mxGeometry x="2512.59" y="551" width="174.83" height="174.83" as="geometry"/>
                </mxCell>
                <mxCell id="3268" style="edgeStyle=none;jumpStyle=arc;html=1;entryX=0.5;entryY=1;entryDx=0;entryDy=0;strokeWidth=3;" edge="1" parent="1" source="3269" target="3275">
                    <mxGeometry relative="1" as="geometry"/>
                </mxCell>
                <mxCell id="3269" value="" style="ellipse;whiteSpace=wrap;html=1;aspect=fixed;fillColor=#67AB9F;strokeWidth=4;strokeColor=#000000;rotation=90;" vertex="1" parent="1">
                    <mxGeometry x="2528.44" y="611" width="40" height="40" as="geometry"/>
                </mxCell>
                <mxCell id="3270" value="" style="endArrow=none;html=1;rounded=0;strokeColor=#000000;strokeWidth=4;exitX=0;exitY=0;exitDx=0;exitDy=0;entryX=1;entryY=1;entryDx=0;entryDy=0;" edge="1" parent="1" source="3269" target="3269">
                    <mxGeometry width="50" height="50" relative="1" as="geometry">
                        <mxPoint x="2634.59" y="623" as="sourcePoint"/>
                        <mxPoint x="2665.59" y="648" as="targetPoint"/>
                    </mxGeometry>
                </mxCell>
                <mxCell id="3271" value="" style="endArrow=none;html=1;rounded=0;strokeColor=#000000;strokeWidth=4;exitX=0;exitY=1;exitDx=0;exitDy=0;entryX=1;entryY=0;entryDx=0;entryDy=0;" edge="1" parent="1" source="3269" target="3269">
                    <mxGeometry width="50" height="50" relative="1" as="geometry">
                        <mxPoint x="2689.59" y="579" as="sourcePoint"/>
                        <mxPoint x="2654.59" y="607" as="targetPoint"/>
                    </mxGeometry>
                </mxCell>
                <mxCell id="3272" style="edgeStyle=none;jumpStyle=arc;html=1;entryX=0;entryY=0.5;entryDx=0;entryDy=0;strokeWidth=3;" edge="1" parent="1" source="3273" target="3269">
                    <mxGeometry relative="1" as="geometry">
                        <Array as="points">
                            <mxPoint x="2548" y="585"/>
                        </Array>
                    </mxGeometry>
                </mxCell>
                <mxCell id="3273" value="" style="whiteSpace=wrap;html=1;aspect=fixed;fillColor=#dae8fc;strokeColor=#000000;strokeWidth=4;rotation=90;" vertex="1" parent="1">
                    <mxGeometry x="2568.44" y="571" width="27.5" height="27.5" as="geometry"/>
                </mxCell>
                <mxCell id="3274" style="edgeStyle=none;jumpStyle=arc;html=1;exitX=0;exitY=0.5;exitDx=0;exitDy=0;entryX=0;entryY=0.5;entryDx=0;entryDy=0;strokeWidth=3;startArrow=classic;startFill=1;endArrow=none;endFill=0;" edge="1" parent="1" source="3275" target="3267">
                    <mxGeometry relative="1" as="geometry">
                        <Array as="points">
                            <mxPoint x="2631" y="571"/>
                            <mxPoint x="2600" y="571"/>
                        </Array>
                    </mxGeometry>
                </mxCell>
                <mxCell id="3275" value="" style="ellipse;whiteSpace=wrap;html=1;aspect=fixed;fillColor=#e1d5e7;strokeColor=#000000;strokeWidth=4;rotation=90;" vertex="1" parent="1">
                    <mxGeometry x="2610" y="611" width="40" height="40" as="geometry"/>
                </mxCell>
                <mxCell id="3276" value="" style="endArrow=none;html=1;rounded=0;strokeColor=#000000;entryX=0.5;entryY=0;entryDx=0;entryDy=0;exitX=0.5;exitY=1;exitDx=0;exitDy=0;strokeWidth=4;" edge="1" parent="1" source="3275" target="3275">
                    <mxGeometry width="50" height="50" relative="1" as="geometry">
                        <mxPoint x="2619.59" y="618" as="sourcePoint"/>
                        <mxPoint x="2669.59" y="668" as="targetPoint"/>
                    </mxGeometry>
                </mxCell>
                <mxCell id="3277" value="" style="endArrow=none;html=1;rounded=0;strokeColor=#000000;entryX=0;entryY=0.5;entryDx=0;entryDy=0;exitX=1;exitY=0.5;exitDx=0;exitDy=0;strokeWidth=4;" edge="1" parent="1" source="3275" target="3275">
                    <mxGeometry width="50" height="50" relative="1" as="geometry">
                        <mxPoint x="2719.59" y="668" as="sourcePoint"/>
                        <mxPoint x="2779.59" y="668" as="targetPoint"/>
                    </mxGeometry>
                </mxCell>
                <mxCell id="3278" style="edgeStyle=orthogonalEdgeStyle;rounded=1;orthogonalLoop=1;jettySize=auto;html=1;exitX=1;exitY=0.5;exitDx=0;exitDy=0;entryX=1;entryY=0.5;entryDx=0;entryDy=0;fontSize=30;fontColor=#990000;startArrow=none;startFill=0;endArrow=classic;endFill=1;strokeWidth=4;endSize=0;startSize=6;" edge="1" parent="1" source="3279" target="3267">
                    <mxGeometry relative="1" as="geometry">
                        <Array as="points">
                            <mxPoint x="2630" y="701"/>
                            <mxPoint x="2600" y="701"/>
                        </Array>
                    </mxGeometry>
                </mxCell>
                <mxCell id="3279" value="" style="rounded=0;whiteSpace=wrap;html=1;glass=0;strokeColor=#000000;strokeWidth=4;fillColor=#FFD966;rotation=90;" vertex="1" parent="1">
                    <mxGeometry x="2620" y="661" width="20" height="36" as="geometry"/>
                </mxCell>
                <mxCell id="3280" value="" style="endArrow=none;html=1;rounded=0;startSize=1;endSize=1;strokeColor=#000000;strokeWidth=4;jumpStyle=none;jumpSize=6;" edge="1" parent="1">
                    <mxGeometry width="50" height="50" relative="1" as="geometry">
                        <mxPoint x="2612.59" y="668.1700000000001" as="sourcePoint"/>
                        <mxPoint x="2622.59" y="678.1700000000001" as="targetPoint"/>
                    </mxGeometry>
                </mxCell>
                <mxCell id="3281" value="" style="endArrow=none;html=1;rounded=0;startSize=1;endSize=1;strokeColor=#000000;strokeWidth=4;jumpStyle=none;jumpSize=6;" edge="1" parent="1">
                    <mxGeometry width="50" height="50" relative="1" as="geometry">
                        <mxPoint x="2622.59" y="678.1700000000001" as="sourcePoint"/>
                        <mxPoint x="2612.59" y="688.1700000000001" as="targetPoint"/>
                    </mxGeometry>
                </mxCell>
                <mxCell id="3282" style="edgeStyle=orthogonalEdgeStyle;rounded=0;jumpStyle=none;jumpSize=6;orthogonalLoop=1;jettySize=auto;html=1;entryX=0;entryY=0.5;entryDx=0;entryDy=0;startArrow=none;startFill=0;endArrow=classic;endFill=1;startSize=1;endSize=1;strokeColor=#000000;strokeWidth=4;" edge="1" parent="1" source="3275" target="3279">
                    <mxGeometry relative="1" as="geometry"/>
                </mxCell>
                <mxCell id="3283" style="edgeStyle=orthogonalEdgeStyle;rounded=0;orthogonalLoop=1;jettySize=auto;html=1;fontSize=30;fontColor=#990000;startArrow=none;startFill=0;endArrow=classic;endFill=1;strokeWidth=5;exitX=1;exitY=0.5;exitDx=0;exitDy=0;" edge="1" parent="1" source="3284">
                    <mxGeometry relative="1" as="geometry">
                        <mxPoint x="2601" y="1428" as="targetPoint"/>
                        <Array as="points">
                            <mxPoint x="2601" y="1408"/>
                            <mxPoint x="2601" y="1408"/>
                        </Array>
                    </mxGeometry>
                </mxCell>
                <mxCell id="3284" value="" style="ellipse;whiteSpace=wrap;html=1;aspect=fixed;fontSize=30;strokeColor=#000000;fillColor=#FFD966;opacity=80;rotation=90;" vertex="1" parent="1">
                    <mxGeometry x="2513" y="1209" width="174.83" height="174.83" as="geometry"/>
                </mxCell>
                <mxCell id="3285" style="edgeStyle=none;jumpStyle=arc;html=1;entryX=0.5;entryY=1;entryDx=0;entryDy=0;strokeWidth=3;" edge="1" parent="1" source="3286" target="3292">
                    <mxGeometry relative="1" as="geometry"/>
                </mxCell>
                <mxCell id="3286" value="" style="ellipse;whiteSpace=wrap;html=1;aspect=fixed;fillColor=#67AB9F;strokeWidth=4;strokeColor=#000000;rotation=90;" vertex="1" parent="1">
                    <mxGeometry x="2528.85" y="1269" width="40" height="40" as="geometry"/>
                </mxCell>
                <mxCell id="3287" value="" style="endArrow=none;html=1;rounded=0;strokeColor=#000000;strokeWidth=4;exitX=0;exitY=0;exitDx=0;exitDy=0;entryX=1;entryY=1;entryDx=0;entryDy=0;" edge="1" parent="1" source="3286" target="3286">
                    <mxGeometry width="50" height="50" relative="1" as="geometry">
                        <mxPoint x="2635" y="1281" as="sourcePoint"/>
                        <mxPoint x="2666" y="1306" as="targetPoint"/>
                    </mxGeometry>
                </mxCell>
                <mxCell id="3288" value="" style="endArrow=none;html=1;rounded=0;strokeColor=#000000;strokeWidth=4;exitX=0;exitY=1;exitDx=0;exitDy=0;entryX=1;entryY=0;entryDx=0;entryDy=0;" edge="1" parent="1" source="3286" target="3286">
                    <mxGeometry width="50" height="50" relative="1" as="geometry">
                        <mxPoint x="2690" y="1237" as="sourcePoint"/>
                        <mxPoint x="2655" y="1265" as="targetPoint"/>
                    </mxGeometry>
                </mxCell>
                <mxCell id="3289" style="edgeStyle=none;jumpStyle=arc;html=1;entryX=0;entryY=0.5;entryDx=0;entryDy=0;strokeWidth=3;" edge="1" parent="1" source="3290" target="3286">
                    <mxGeometry relative="1" as="geometry">
                        <Array as="points">
                            <mxPoint x="2548.41" y="1243"/>
                        </Array>
                    </mxGeometry>
                </mxCell>
                <mxCell id="3290" value="" style="whiteSpace=wrap;html=1;aspect=fixed;fillColor=#dae8fc;strokeColor=#000000;strokeWidth=4;rotation=90;" vertex="1" parent="1">
                    <mxGeometry x="2568.85" y="1229" width="27.5" height="27.5" as="geometry"/>
                </mxCell>
                <mxCell id="3291" style="edgeStyle=none;jumpStyle=arc;html=1;exitX=0;exitY=0.5;exitDx=0;exitDy=0;entryX=0;entryY=0.5;entryDx=0;entryDy=0;strokeWidth=3;startArrow=classic;startFill=1;endArrow=none;endFill=0;" edge="1" parent="1" source="3292" target="3284">
                    <mxGeometry relative="1" as="geometry">
                        <Array as="points">
                            <mxPoint x="2631.41" y="1229"/>
                            <mxPoint x="2600.41" y="1229"/>
                        </Array>
                    </mxGeometry>
                </mxCell>
                <mxCell id="3292" value="" style="ellipse;whiteSpace=wrap;html=1;aspect=fixed;fillColor=#e1d5e7;strokeColor=#000000;strokeWidth=4;rotation=90;" vertex="1" parent="1">
                    <mxGeometry x="2610.41" y="1269" width="40" height="40" as="geometry"/>
                </mxCell>
                <mxCell id="3293" value="" style="endArrow=none;html=1;rounded=0;strokeColor=#000000;entryX=0.5;entryY=0;entryDx=0;entryDy=0;exitX=0.5;exitY=1;exitDx=0;exitDy=0;strokeWidth=4;" edge="1" parent="1" source="3292" target="3292">
                    <mxGeometry width="50" height="50" relative="1" as="geometry">
                        <mxPoint x="2620" y="1276" as="sourcePoint"/>
                        <mxPoint x="2670" y="1326" as="targetPoint"/>
                    </mxGeometry>
                </mxCell>
                <mxCell id="3294" value="" style="endArrow=none;html=1;rounded=0;strokeColor=#000000;entryX=0;entryY=0.5;entryDx=0;entryDy=0;exitX=1;exitY=0.5;exitDx=0;exitDy=0;strokeWidth=4;" edge="1" parent="1" source="3292" target="3292">
                    <mxGeometry width="50" height="50" relative="1" as="geometry">
                        <mxPoint x="2720" y="1326" as="sourcePoint"/>
                        <mxPoint x="2780" y="1326" as="targetPoint"/>
                    </mxGeometry>
                </mxCell>
                <mxCell id="3295" style="edgeStyle=orthogonalEdgeStyle;rounded=1;orthogonalLoop=1;jettySize=auto;html=1;exitX=1;exitY=0.5;exitDx=0;exitDy=0;entryX=1;entryY=0.5;entryDx=0;entryDy=0;fontSize=30;fontColor=#990000;startArrow=none;startFill=0;endArrow=classic;endFill=1;strokeWidth=4;endSize=0;startSize=6;" edge="1" parent="1" source="3296" target="3284">
                    <mxGeometry relative="1" as="geometry">
                        <Array as="points">
                            <mxPoint x="2630.41" y="1359"/>
                            <mxPoint x="2600.41" y="1359"/>
                        </Array>
                    </mxGeometry>
                </mxCell>
                <mxCell id="3296" value="" style="rounded=0;whiteSpace=wrap;html=1;glass=0;strokeColor=#000000;strokeWidth=4;fillColor=#FFD966;rotation=90;" vertex="1" parent="1">
                    <mxGeometry x="2620.41" y="1319" width="20" height="36" as="geometry"/>
                </mxCell>
                <mxCell id="3297" value="" style="endArrow=none;html=1;rounded=0;startSize=1;endSize=1;strokeColor=#000000;strokeWidth=4;jumpStyle=none;jumpSize=6;" edge="1" parent="1">
                    <mxGeometry width="50" height="50" relative="1" as="geometry">
                        <mxPoint x="2613" y="1326.17" as="sourcePoint"/>
                        <mxPoint x="2623" y="1336.17" as="targetPoint"/>
                    </mxGeometry>
                </mxCell>
                <mxCell id="3298" value="" style="endArrow=none;html=1;rounded=0;startSize=1;endSize=1;strokeColor=#000000;strokeWidth=4;jumpStyle=none;jumpSize=6;" edge="1" parent="1">
                    <mxGeometry width="50" height="50" relative="1" as="geometry">
                        <mxPoint x="2623" y="1336.17" as="sourcePoint"/>
                        <mxPoint x="2613" y="1346.17" as="targetPoint"/>
                    </mxGeometry>
                </mxCell>
                <mxCell id="3299" style="edgeStyle=orthogonalEdgeStyle;rounded=0;jumpStyle=none;jumpSize=6;orthogonalLoop=1;jettySize=auto;html=1;entryX=0;entryY=0.5;entryDx=0;entryDy=0;startArrow=none;startFill=0;endArrow=classic;endFill=1;startSize=1;endSize=1;strokeColor=#000000;strokeWidth=4;" edge="1" parent="1" source="3292" target="3296">
                    <mxGeometry relative="1" as="geometry"/>
                </mxCell>
                <mxCell id="3300" style="edgeStyle=orthogonalEdgeStyle;rounded=0;orthogonalLoop=1;jettySize=auto;html=1;fontSize=30;fontColor=#990000;startArrow=none;startFill=0;endArrow=classic;endFill=1;strokeWidth=5;exitX=1;exitY=0.5;exitDx=0;exitDy=0;" edge="1" parent="1" source="3301">
                    <mxGeometry relative="1" as="geometry">
                        <mxPoint x="2601" y="1209" as="targetPoint"/>
                        <Array as="points">
                            <mxPoint x="2601" y="1189"/>
                            <mxPoint x="2601" y="1189"/>
                        </Array>
                    </mxGeometry>
                </mxCell>
                <mxCell id="3301" value="" style="ellipse;whiteSpace=wrap;html=1;aspect=fixed;fontSize=30;strokeColor=#000000;fillColor=#FFD966;opacity=80;rotation=90;" vertex="1" parent="1">
                    <mxGeometry x="2513" y="990" width="174.83" height="174.83" as="geometry"/>
                </mxCell>
                <mxCell id="3302" style="edgeStyle=none;jumpStyle=arc;html=1;entryX=0.5;entryY=1;entryDx=0;entryDy=0;strokeWidth=3;" edge="1" parent="1" source="3303" target="3309">
                    <mxGeometry relative="1" as="geometry"/>
                </mxCell>
                <mxCell id="3303" value="" style="ellipse;whiteSpace=wrap;html=1;aspect=fixed;fillColor=#67AB9F;strokeWidth=4;strokeColor=#000000;rotation=90;" vertex="1" parent="1">
                    <mxGeometry x="2528.85" y="1050" width="40" height="40" as="geometry"/>
                </mxCell>
                <mxCell id="3304" value="" style="endArrow=none;html=1;rounded=0;strokeColor=#000000;strokeWidth=4;exitX=0;exitY=0;exitDx=0;exitDy=0;entryX=1;entryY=1;entryDx=0;entryDy=0;" edge="1" parent="1" source="3303" target="3303">
                    <mxGeometry width="50" height="50" relative="1" as="geometry">
                        <mxPoint x="2635" y="1062" as="sourcePoint"/>
                        <mxPoint x="2666" y="1087" as="targetPoint"/>
                    </mxGeometry>
                </mxCell>
                <mxCell id="3305" value="" style="endArrow=none;html=1;rounded=0;strokeColor=#000000;strokeWidth=4;exitX=0;exitY=1;exitDx=0;exitDy=0;entryX=1;entryY=0;entryDx=0;entryDy=0;" edge="1" parent="1" source="3303" target="3303">
                    <mxGeometry width="50" height="50" relative="1" as="geometry">
                        <mxPoint x="2690" y="1018" as="sourcePoint"/>
                        <mxPoint x="2655" y="1046" as="targetPoint"/>
                    </mxGeometry>
                </mxCell>
                <mxCell id="3306" style="edgeStyle=none;jumpStyle=arc;html=1;entryX=0;entryY=0.5;entryDx=0;entryDy=0;strokeWidth=3;" edge="1" parent="1" source="3307" target="3303">
                    <mxGeometry relative="1" as="geometry">
                        <Array as="points">
                            <mxPoint x="2548.41" y="1024"/>
                        </Array>
                    </mxGeometry>
                </mxCell>
                <mxCell id="3307" value="" style="whiteSpace=wrap;html=1;aspect=fixed;fillColor=#dae8fc;strokeColor=#000000;strokeWidth=4;rotation=90;" vertex="1" parent="1">
                    <mxGeometry x="2568.85" y="1010" width="27.5" height="27.5" as="geometry"/>
                </mxCell>
                <mxCell id="3308" style="edgeStyle=none;jumpStyle=arc;html=1;exitX=0;exitY=0.5;exitDx=0;exitDy=0;entryX=0;entryY=0.5;entryDx=0;entryDy=0;strokeWidth=3;startArrow=classic;startFill=1;endArrow=none;endFill=0;" edge="1" parent="1" source="3309" target="3301">
                    <mxGeometry relative="1" as="geometry">
                        <Array as="points">
                            <mxPoint x="2631.41" y="1010"/>
                            <mxPoint x="2600.41" y="1010"/>
                        </Array>
                    </mxGeometry>
                </mxCell>
                <mxCell id="3309" value="" style="ellipse;whiteSpace=wrap;html=1;aspect=fixed;fillColor=#e1d5e7;strokeColor=#000000;strokeWidth=4;rotation=90;" vertex="1" parent="1">
                    <mxGeometry x="2610.41" y="1050" width="40" height="40" as="geometry"/>
                </mxCell>
                <mxCell id="3310" value="" style="endArrow=none;html=1;rounded=0;strokeColor=#000000;entryX=0.5;entryY=0;entryDx=0;entryDy=0;exitX=0.5;exitY=1;exitDx=0;exitDy=0;strokeWidth=4;" edge="1" parent="1" source="3309" target="3309">
                    <mxGeometry width="50" height="50" relative="1" as="geometry">
                        <mxPoint x="2620" y="1057" as="sourcePoint"/>
                        <mxPoint x="2670" y="1107" as="targetPoint"/>
                    </mxGeometry>
                </mxCell>
                <mxCell id="3311" value="" style="endArrow=none;html=1;rounded=0;strokeColor=#000000;entryX=0;entryY=0.5;entryDx=0;entryDy=0;exitX=1;exitY=0.5;exitDx=0;exitDy=0;strokeWidth=4;" edge="1" parent="1" source="3309" target="3309">
                    <mxGeometry width="50" height="50" relative="1" as="geometry">
                        <mxPoint x="2720" y="1107" as="sourcePoint"/>
                        <mxPoint x="2780" y="1107" as="targetPoint"/>
                    </mxGeometry>
                </mxCell>
                <mxCell id="3312" style="edgeStyle=orthogonalEdgeStyle;rounded=1;orthogonalLoop=1;jettySize=auto;html=1;exitX=1;exitY=0.5;exitDx=0;exitDy=0;entryX=1;entryY=0.5;entryDx=0;entryDy=0;fontSize=30;fontColor=#990000;startArrow=none;startFill=0;endArrow=classic;endFill=1;strokeWidth=4;endSize=0;startSize=6;" edge="1" parent="1" source="3313" target="3301">
                    <mxGeometry relative="1" as="geometry">
                        <Array as="points">
                            <mxPoint x="2630.41" y="1140"/>
                            <mxPoint x="2600.41" y="1140"/>
                        </Array>
                    </mxGeometry>
                </mxCell>
                <mxCell id="3313" value="" style="rounded=0;whiteSpace=wrap;html=1;glass=0;strokeColor=#000000;strokeWidth=4;fillColor=#FFD966;rotation=90;" vertex="1" parent="1">
                    <mxGeometry x="2620.41" y="1100" width="20" height="36" as="geometry"/>
                </mxCell>
                <mxCell id="3314" value="" style="endArrow=none;html=1;rounded=0;startSize=1;endSize=1;strokeColor=#000000;strokeWidth=4;jumpStyle=none;jumpSize=6;" edge="1" parent="1">
                    <mxGeometry width="50" height="50" relative="1" as="geometry">
                        <mxPoint x="2613" y="1107.17" as="sourcePoint"/>
                        <mxPoint x="2623" y="1117.17" as="targetPoint"/>
                    </mxGeometry>
                </mxCell>
                <mxCell id="3315" value="" style="endArrow=none;html=1;rounded=0;startSize=1;endSize=1;strokeColor=#000000;strokeWidth=4;jumpStyle=none;jumpSize=6;" edge="1" parent="1">
                    <mxGeometry width="50" height="50" relative="1" as="geometry">
                        <mxPoint x="2623" y="1117.17" as="sourcePoint"/>
                        <mxPoint x="2613" y="1127.17" as="targetPoint"/>
                    </mxGeometry>
                </mxCell>
                <mxCell id="3316" style="edgeStyle=orthogonalEdgeStyle;rounded=0;jumpStyle=none;jumpSize=6;orthogonalLoop=1;jettySize=auto;html=1;entryX=0;entryY=0.5;entryDx=0;entryDy=0;startArrow=none;startFill=0;endArrow=classic;endFill=1;startSize=1;endSize=1;strokeColor=#000000;strokeWidth=4;" edge="1" parent="1" source="3309" target="3313">
                    <mxGeometry relative="1" as="geometry"/>
                </mxCell>
                <mxCell id="3336" style="edgeStyle=orthogonalEdgeStyle;rounded=0;orthogonalLoop=1;jettySize=auto;html=1;fontSize=30;fontColor=#990000;startArrow=none;startFill=0;endArrow=classic;endFill=1;strokeWidth=5;exitX=1;exitY=0.5;exitDx=0;exitDy=0;" edge="1" parent="1" source="3337">
                    <mxGeometry relative="1" as="geometry">
                        <mxPoint x="2601" y="1649" as="targetPoint"/>
                        <Array as="points">
                            <mxPoint x="2601" y="1629"/>
                            <mxPoint x="2601" y="1629"/>
                        </Array>
                    </mxGeometry>
                </mxCell>
                <mxCell id="3337" value="" style="ellipse;whiteSpace=wrap;html=1;aspect=fixed;fontSize=30;strokeColor=#000000;fillColor=#FFD966;opacity=80;rotation=90;" vertex="1" parent="1">
                    <mxGeometry x="2513" y="1430" width="174.83" height="174.83" as="geometry"/>
                </mxCell>
                <mxCell id="3338" style="edgeStyle=none;jumpStyle=arc;html=1;entryX=0.5;entryY=1;entryDx=0;entryDy=0;strokeWidth=3;" edge="1" parent="1" source="3339" target="3345">
                    <mxGeometry relative="1" as="geometry"/>
                </mxCell>
                <mxCell id="3339" value="" style="ellipse;whiteSpace=wrap;html=1;aspect=fixed;fillColor=#67AB9F;strokeWidth=4;strokeColor=#000000;rotation=90;" vertex="1" parent="1">
                    <mxGeometry x="2528.85" y="1490" width="40" height="40" as="geometry"/>
                </mxCell>
                <mxCell id="3340" value="" style="endArrow=none;html=1;rounded=0;strokeColor=#000000;strokeWidth=4;exitX=0;exitY=0;exitDx=0;exitDy=0;entryX=1;entryY=1;entryDx=0;entryDy=0;" edge="1" parent="1" source="3339" target="3339">
                    <mxGeometry width="50" height="50" relative="1" as="geometry">
                        <mxPoint x="2635" y="1502" as="sourcePoint"/>
                        <mxPoint x="2666" y="1527" as="targetPoint"/>
                    </mxGeometry>
                </mxCell>
                <mxCell id="3341" value="" style="endArrow=none;html=1;rounded=0;strokeColor=#000000;strokeWidth=4;exitX=0;exitY=1;exitDx=0;exitDy=0;entryX=1;entryY=0;entryDx=0;entryDy=0;" edge="1" parent="1" source="3339" target="3339">
                    <mxGeometry width="50" height="50" relative="1" as="geometry">
                        <mxPoint x="2690" y="1458" as="sourcePoint"/>
                        <mxPoint x="2655" y="1486" as="targetPoint"/>
                    </mxGeometry>
                </mxCell>
                <mxCell id="3342" style="edgeStyle=none;jumpStyle=arc;html=1;entryX=0;entryY=0.5;entryDx=0;entryDy=0;strokeWidth=3;" edge="1" parent="1" source="3343" target="3339">
                    <mxGeometry relative="1" as="geometry">
                        <Array as="points">
                            <mxPoint x="2548.41" y="1464"/>
                        </Array>
                    </mxGeometry>
                </mxCell>
                <mxCell id="3343" value="" style="whiteSpace=wrap;html=1;aspect=fixed;fillColor=#dae8fc;strokeColor=#000000;strokeWidth=4;rotation=90;" vertex="1" parent="1">
                    <mxGeometry x="2568.85" y="1450" width="27.5" height="27.5" as="geometry"/>
                </mxCell>
                <mxCell id="3344" style="edgeStyle=none;jumpStyle=arc;html=1;exitX=0;exitY=0.5;exitDx=0;exitDy=0;entryX=0;entryY=0.5;entryDx=0;entryDy=0;strokeWidth=3;startArrow=classic;startFill=1;endArrow=none;endFill=0;" edge="1" parent="1" source="3345" target="3337">
                    <mxGeometry relative="1" as="geometry">
                        <Array as="points">
                            <mxPoint x="2631.41" y="1450"/>
                            <mxPoint x="2600.41" y="1450"/>
                        </Array>
                    </mxGeometry>
                </mxCell>
                <mxCell id="3345" value="" style="ellipse;whiteSpace=wrap;html=1;aspect=fixed;fillColor=#e1d5e7;strokeColor=#000000;strokeWidth=4;rotation=90;" vertex="1" parent="1">
                    <mxGeometry x="2610.41" y="1490" width="40" height="40" as="geometry"/>
                </mxCell>
                <mxCell id="3346" value="" style="endArrow=none;html=1;rounded=0;strokeColor=#000000;entryX=0.5;entryY=0;entryDx=0;entryDy=0;exitX=0.5;exitY=1;exitDx=0;exitDy=0;strokeWidth=4;" edge="1" parent="1" source="3345" target="3345">
                    <mxGeometry width="50" height="50" relative="1" as="geometry">
                        <mxPoint x="2620" y="1497" as="sourcePoint"/>
                        <mxPoint x="2670" y="1547" as="targetPoint"/>
                    </mxGeometry>
                </mxCell>
                <mxCell id="3347" value="" style="endArrow=none;html=1;rounded=0;strokeColor=#000000;entryX=0;entryY=0.5;entryDx=0;entryDy=0;exitX=1;exitY=0.5;exitDx=0;exitDy=0;strokeWidth=4;" edge="1" parent="1" source="3345" target="3345">
                    <mxGeometry width="50" height="50" relative="1" as="geometry">
                        <mxPoint x="2720" y="1547" as="sourcePoint"/>
                        <mxPoint x="2780" y="1547" as="targetPoint"/>
                    </mxGeometry>
                </mxCell>
                <mxCell id="3348" style="edgeStyle=orthogonalEdgeStyle;rounded=1;orthogonalLoop=1;jettySize=auto;html=1;exitX=1;exitY=0.5;exitDx=0;exitDy=0;entryX=1;entryY=0.5;entryDx=0;entryDy=0;fontSize=30;fontColor=#990000;startArrow=none;startFill=0;endArrow=classic;endFill=1;strokeWidth=4;endSize=0;startSize=6;" edge="1" parent="1" source="3349" target="3337">
                    <mxGeometry relative="1" as="geometry">
                        <Array as="points">
                            <mxPoint x="2630.41" y="1580"/>
                            <mxPoint x="2600.41" y="1580"/>
                        </Array>
                    </mxGeometry>
                </mxCell>
                <mxCell id="3349" value="" style="rounded=0;whiteSpace=wrap;html=1;glass=0;strokeColor=#000000;strokeWidth=4;fillColor=#FFD966;rotation=90;" vertex="1" parent="1">
                    <mxGeometry x="2620.41" y="1540" width="20" height="36" as="geometry"/>
                </mxCell>
                <mxCell id="3350" value="" style="endArrow=none;html=1;rounded=0;startSize=1;endSize=1;strokeColor=#000000;strokeWidth=4;jumpStyle=none;jumpSize=6;" edge="1" parent="1">
                    <mxGeometry width="50" height="50" relative="1" as="geometry">
                        <mxPoint x="2613" y="1547.17" as="sourcePoint"/>
                        <mxPoint x="2623" y="1557.17" as="targetPoint"/>
                    </mxGeometry>
                </mxCell>
                <mxCell id="3351" value="" style="endArrow=none;html=1;rounded=0;startSize=1;endSize=1;strokeColor=#000000;strokeWidth=4;jumpStyle=none;jumpSize=6;" edge="1" parent="1">
                    <mxGeometry width="50" height="50" relative="1" as="geometry">
                        <mxPoint x="2623" y="1557.17" as="sourcePoint"/>
                        <mxPoint x="2613" y="1567.17" as="targetPoint"/>
                    </mxGeometry>
                </mxCell>
                <mxCell id="3352" style="edgeStyle=orthogonalEdgeStyle;rounded=0;jumpStyle=none;jumpSize=6;orthogonalLoop=1;jettySize=auto;html=1;entryX=0;entryY=0.5;entryDx=0;entryDy=0;startArrow=none;startFill=0;endArrow=classic;endFill=1;startSize=1;endSize=1;strokeColor=#000000;strokeWidth=4;" edge="1" parent="1" source="3345" target="3349">
                    <mxGeometry relative="1" as="geometry"/>
                </mxCell>
                <mxCell id="3373" style="edgeStyle=orthogonalEdgeStyle;rounded=0;orthogonalLoop=1;jettySize=auto;html=1;fontSize=30;fontColor=#990000;startArrow=none;startFill=0;endArrow=classic;endFill=1;strokeWidth=5;exitX=1;exitY=0.5;exitDx=0;exitDy=0;" edge="1" parent="1" source="3374">
                    <mxGeometry relative="1" as="geometry">
                        <mxPoint x="2601" y="1868" as="targetPoint"/>
                        <Array as="points">
                            <mxPoint x="2601" y="1848"/>
                            <mxPoint x="2601" y="1848"/>
                        </Array>
                    </mxGeometry>
                </mxCell>
                <mxCell id="3374" value="" style="ellipse;whiteSpace=wrap;html=1;aspect=fixed;fontSize=30;strokeColor=#000000;fillColor=#FFD966;opacity=80;rotation=90;" vertex="1" parent="1">
                    <mxGeometry x="2513" y="1649" width="174.83" height="174.83" as="geometry"/>
                </mxCell>
                <mxCell id="3375" style="edgeStyle=none;jumpStyle=arc;html=1;entryX=0.5;entryY=1;entryDx=0;entryDy=0;strokeWidth=3;" edge="1" parent="1" source="3376" target="3382">
                    <mxGeometry relative="1" as="geometry"/>
                </mxCell>
                <mxCell id="3376" value="" style="ellipse;whiteSpace=wrap;html=1;aspect=fixed;fillColor=#67AB9F;strokeWidth=4;strokeColor=#000000;rotation=90;" vertex="1" parent="1">
                    <mxGeometry x="2528.85" y="1709" width="40" height="40" as="geometry"/>
                </mxCell>
                <mxCell id="3377" value="" style="endArrow=none;html=1;rounded=0;strokeColor=#000000;strokeWidth=4;exitX=0;exitY=0;exitDx=0;exitDy=0;entryX=1;entryY=1;entryDx=0;entryDy=0;" edge="1" parent="1" source="3376" target="3376">
                    <mxGeometry width="50" height="50" relative="1" as="geometry">
                        <mxPoint x="2635" y="1721" as="sourcePoint"/>
                        <mxPoint x="2666" y="1746" as="targetPoint"/>
                    </mxGeometry>
                </mxCell>
                <mxCell id="3378" value="" style="endArrow=none;html=1;rounded=0;strokeColor=#000000;strokeWidth=4;exitX=0;exitY=1;exitDx=0;exitDy=0;entryX=1;entryY=0;entryDx=0;entryDy=0;" edge="1" parent="1" source="3376" target="3376">
                    <mxGeometry width="50" height="50" relative="1" as="geometry">
                        <mxPoint x="2690" y="1677" as="sourcePoint"/>
                        <mxPoint x="2655" y="1705" as="targetPoint"/>
                    </mxGeometry>
                </mxCell>
                <mxCell id="3379" style="edgeStyle=none;jumpStyle=arc;html=1;entryX=0;entryY=0.5;entryDx=0;entryDy=0;strokeWidth=3;" edge="1" parent="1" source="3380" target="3376">
                    <mxGeometry relative="1" as="geometry">
                        <Array as="points">
                            <mxPoint x="2548.41" y="1683"/>
                        </Array>
                    </mxGeometry>
                </mxCell>
                <mxCell id="3380" value="" style="whiteSpace=wrap;html=1;aspect=fixed;fillColor=#dae8fc;strokeColor=#000000;strokeWidth=4;rotation=90;" vertex="1" parent="1">
                    <mxGeometry x="2568.85" y="1669" width="27.5" height="27.5" as="geometry"/>
                </mxCell>
                <mxCell id="3381" style="edgeStyle=none;jumpStyle=arc;html=1;exitX=0;exitY=0.5;exitDx=0;exitDy=0;entryX=0;entryY=0.5;entryDx=0;entryDy=0;strokeWidth=3;startArrow=classic;startFill=1;endArrow=none;endFill=0;" edge="1" parent="1" source="3382" target="3374">
                    <mxGeometry relative="1" as="geometry">
                        <Array as="points">
                            <mxPoint x="2631.41" y="1669"/>
                            <mxPoint x="2600.41" y="1669"/>
                        </Array>
                    </mxGeometry>
                </mxCell>
                <mxCell id="3382" value="" style="ellipse;whiteSpace=wrap;html=1;aspect=fixed;fillColor=#e1d5e7;strokeColor=#000000;strokeWidth=4;rotation=90;" vertex="1" parent="1">
                    <mxGeometry x="2610.41" y="1709" width="40" height="40" as="geometry"/>
                </mxCell>
                <mxCell id="3383" value="" style="endArrow=none;html=1;rounded=0;strokeColor=#000000;entryX=0.5;entryY=0;entryDx=0;entryDy=0;exitX=0.5;exitY=1;exitDx=0;exitDy=0;strokeWidth=4;" edge="1" parent="1" source="3382" target="3382">
                    <mxGeometry width="50" height="50" relative="1" as="geometry">
                        <mxPoint x="2620" y="1716" as="sourcePoint"/>
                        <mxPoint x="2670" y="1766" as="targetPoint"/>
                    </mxGeometry>
                </mxCell>
                <mxCell id="3384" value="" style="endArrow=none;html=1;rounded=0;strokeColor=#000000;entryX=0;entryY=0.5;entryDx=0;entryDy=0;exitX=1;exitY=0.5;exitDx=0;exitDy=0;strokeWidth=4;" edge="1" parent="1" source="3382" target="3382">
                    <mxGeometry width="50" height="50" relative="1" as="geometry">
                        <mxPoint x="2720" y="1766" as="sourcePoint"/>
                        <mxPoint x="2780" y="1766" as="targetPoint"/>
                    </mxGeometry>
                </mxCell>
                <mxCell id="3385" style="edgeStyle=orthogonalEdgeStyle;rounded=1;orthogonalLoop=1;jettySize=auto;html=1;exitX=1;exitY=0.5;exitDx=0;exitDy=0;entryX=1;entryY=0.5;entryDx=0;entryDy=0;fontSize=30;fontColor=#990000;startArrow=none;startFill=0;endArrow=classic;endFill=1;strokeWidth=4;endSize=0;startSize=6;" edge="1" parent="1" source="3386" target="3374">
                    <mxGeometry relative="1" as="geometry">
                        <Array as="points">
                            <mxPoint x="2630.41" y="1799"/>
                            <mxPoint x="2600.41" y="1799"/>
                        </Array>
                    </mxGeometry>
                </mxCell>
                <mxCell id="3386" value="" style="rounded=0;whiteSpace=wrap;html=1;glass=0;strokeColor=#000000;strokeWidth=4;fillColor=#FFD966;rotation=90;" vertex="1" parent="1">
                    <mxGeometry x="2620.41" y="1759" width="20" height="36" as="geometry"/>
                </mxCell>
                <mxCell id="3387" value="" style="endArrow=none;html=1;rounded=0;startSize=1;endSize=1;strokeColor=#000000;strokeWidth=4;jumpStyle=none;jumpSize=6;" edge="1" parent="1">
                    <mxGeometry width="50" height="50" relative="1" as="geometry">
                        <mxPoint x="2613" y="1766.17" as="sourcePoint"/>
                        <mxPoint x="2623" y="1776.17" as="targetPoint"/>
                    </mxGeometry>
                </mxCell>
                <mxCell id="3388" value="" style="endArrow=none;html=1;rounded=0;startSize=1;endSize=1;strokeColor=#000000;strokeWidth=4;jumpStyle=none;jumpSize=6;" edge="1" parent="1">
                    <mxGeometry width="50" height="50" relative="1" as="geometry">
                        <mxPoint x="2623" y="1776.17" as="sourcePoint"/>
                        <mxPoint x="2613" y="1786.17" as="targetPoint"/>
                    </mxGeometry>
                </mxCell>
                <mxCell id="3389" style="edgeStyle=orthogonalEdgeStyle;rounded=0;jumpStyle=none;jumpSize=6;orthogonalLoop=1;jettySize=auto;html=1;entryX=0;entryY=0.5;entryDx=0;entryDy=0;startArrow=none;startFill=0;endArrow=classic;endFill=1;startSize=1;endSize=1;strokeColor=#000000;strokeWidth=4;" edge="1" parent="1" source="3382" target="3386">
                    <mxGeometry relative="1" as="geometry"/>
                </mxCell>
                <mxCell id="3391" style="edgeStyle=none;jumpStyle=arc;html=1;entryX=0.5;entryY=1;entryDx=0;entryDy=0;startArrow=none;startFill=0;endArrow=classic;endFill=1;startSize=6;endSize=0;strokeWidth=4;" edge="1" parent="1" source="3390" target="3269">
                    <mxGeometry relative="1" as="geometry"/>
                </mxCell>
                <mxCell id="3405" style="edgeStyle=none;jumpStyle=arc;html=1;exitX=0.25;exitY=1;exitDx=0;exitDy=0;startArrow=classic;startFill=1;endArrow=none;endFill=0;startSize=6;endSize=0;strokeColor=#D6B656;strokeWidth=4;" edge="1" parent="1" source="3390">
                    <mxGeometry relative="1" as="geometry">
                        <mxPoint x="2420" y="609.5116279069771" as="targetPoint"/>
                    </mxGeometry>
                </mxCell>
                <mxCell id="3390" value="" style="shape=trapezoid;perimeter=trapezoidPerimeter;whiteSpace=wrap;html=1;fixedSize=1;rounded=0;glass=0;strokeColor=#000000;strokeWidth=4;fillColor=#fad7ac;rotation=90;" vertex="1" parent="1">
                    <mxGeometry x="2430" y="616" width="86" height="30" as="geometry"/>
                </mxCell>
                <mxCell id="3394" style="edgeStyle=none;jumpStyle=arc;html=1;entryX=0.5;entryY=1;entryDx=0;entryDy=0;startArrow=none;startFill=0;endArrow=classic;endFill=1;startSize=6;endSize=0;strokeWidth=4;" edge="1" parent="1" source="3395">
                    <mxGeometry relative="1" as="geometry">
                        <mxPoint x="2528.850000000001" y="850" as="targetPoint"/>
                    </mxGeometry>
                </mxCell>
                <mxCell id="3395" value="" style="shape=trapezoid;perimeter=trapezoidPerimeter;whiteSpace=wrap;html=1;fixedSize=1;rounded=0;glass=0;strokeColor=#000000;strokeWidth=4;fillColor=#fad7ac;rotation=90;" vertex="1" parent="1">
                    <mxGeometry x="2430.4100000000003" y="835" width="86" height="30" as="geometry"/>
                </mxCell>
                <mxCell id="3396" style="edgeStyle=none;jumpStyle=arc;html=1;entryX=0.5;entryY=1;entryDx=0;entryDy=0;startArrow=none;startFill=0;endArrow=classic;endFill=1;startSize=6;endSize=0;strokeWidth=4;" edge="1" parent="1" source="3397">
                    <mxGeometry relative="1" as="geometry">
                        <mxPoint x="2528.8500000000004" y="1070" as="targetPoint"/>
                    </mxGeometry>
                </mxCell>
                <mxCell id="3397" value="" style="shape=trapezoid;perimeter=trapezoidPerimeter;whiteSpace=wrap;html=1;fixedSize=1;rounded=0;glass=0;strokeColor=#000000;strokeWidth=4;fillColor=#fad7ac;rotation=90;" vertex="1" parent="1">
                    <mxGeometry x="2430.4100000000003" y="1055" width="86" height="30" as="geometry"/>
                </mxCell>
                <mxCell id="3398" style="edgeStyle=none;jumpStyle=arc;html=1;entryX=0.5;entryY=1;entryDx=0;entryDy=0;startArrow=none;startFill=0;endArrow=classic;endFill=1;startSize=6;endSize=0;strokeWidth=4;" edge="1" parent="1" source="3399">
                    <mxGeometry relative="1" as="geometry">
                        <mxPoint x="2528.4400000000005" y="1289" as="targetPoint"/>
                    </mxGeometry>
                </mxCell>
                <mxCell id="3399" value="" style="shape=trapezoid;perimeter=trapezoidPerimeter;whiteSpace=wrap;html=1;fixedSize=1;rounded=0;glass=0;strokeColor=#000000;strokeWidth=4;fillColor=#fad7ac;rotation=90;" vertex="1" parent="1">
                    <mxGeometry x="2430.0000000000005" y="1274" width="86" height="30" as="geometry"/>
                </mxCell>
                <mxCell id="3400" style="edgeStyle=none;jumpStyle=arc;html=1;entryX=0.5;entryY=1;entryDx=0;entryDy=0;startArrow=none;startFill=0;endArrow=classic;endFill=1;startSize=6;endSize=0;strokeWidth=4;" edge="1" parent="1" source="3401">
                    <mxGeometry relative="1" as="geometry">
                        <mxPoint x="2528.8500000000004" y="1510" as="targetPoint"/>
                    </mxGeometry>
                </mxCell>
                <mxCell id="3401" value="" style="shape=trapezoid;perimeter=trapezoidPerimeter;whiteSpace=wrap;html=1;fixedSize=1;rounded=0;glass=0;strokeColor=#000000;strokeWidth=4;fillColor=#fad7ac;rotation=90;" vertex="1" parent="1">
                    <mxGeometry x="2430.4100000000003" y="1495" width="86" height="30" as="geometry"/>
                </mxCell>
                <mxCell id="3402" style="edgeStyle=none;jumpStyle=arc;html=1;entryX=0.5;entryY=1;entryDx=0;entryDy=0;startArrow=none;startFill=0;endArrow=classic;endFill=1;startSize=6;endSize=0;strokeWidth=4;" edge="1" parent="1" source="3403">
                    <mxGeometry relative="1" as="geometry">
                        <mxPoint x="2528.8500000000004" y="1729" as="targetPoint"/>
                    </mxGeometry>
                </mxCell>
                <mxCell id="3403" value="" style="shape=trapezoid;perimeter=trapezoidPerimeter;whiteSpace=wrap;html=1;fixedSize=1;rounded=0;glass=0;strokeColor=#000000;strokeWidth=4;fillColor=#fad7ac;rotation=90;" vertex="1" parent="1">
                    <mxGeometry x="2430.4100000000003" y="1714" width="86" height="30" as="geometry"/>
                </mxCell>
                <mxCell id="3404" value="" style="endArrow=none;html=1;startSize=6;endSize=0;strokeWidth=4;jumpStyle=none;strokeColor=#B09500;fillColor=#e3c800;" edge="1" parent="1">
                    <mxGeometry width="50" height="50" relative="1" as="geometry">
                        <mxPoint x="2416" y="1040" as="sourcePoint"/>
                        <mxPoint x="2416" y="600" as="targetPoint"/>
                    </mxGeometry>
                </mxCell>
                <mxCell id="3406" style="edgeStyle=none;jumpStyle=arc;html=1;exitX=0.25;exitY=1;exitDx=0;exitDy=0;startArrow=classic;startFill=1;endArrow=none;endFill=0;startSize=6;endSize=0;strokeColor=#D6B656;strokeWidth=4;" edge="1" parent="1">
                    <mxGeometry relative="1" as="geometry">
                        <mxPoint x="2420" y="829.6916279069774" as="targetPoint"/>
                        <mxPoint x="2458" y="829.6799999999998" as="sourcePoint"/>
                    </mxGeometry>
                </mxCell>
                <mxCell id="3407" style="edgeStyle=none;jumpStyle=arc;html=1;exitX=0.25;exitY=1;exitDx=0;exitDy=0;startArrow=classic;startFill=1;endArrow=none;endFill=0;startSize=6;endSize=0;strokeColor=#D6B656;strokeWidth=4;" edge="1" parent="1">
                    <mxGeometry relative="1" as="geometry">
                        <mxPoint x="2416" y="1037.511627906978" as="targetPoint"/>
                        <mxPoint x="2454" y="1037.4999999999995" as="sourcePoint"/>
                    </mxGeometry>
                </mxCell>
                <mxCell id="3408" style="edgeStyle=none;jumpStyle=arc;html=1;exitX=0.75;exitY=1;exitDx=0;exitDy=0;startArrow=classic;startFill=1;endArrow=none;endFill=0;startSize=6;endSize=0;strokeColor=#990000;strokeWidth=4;" edge="1" parent="1" source="3390">
                    <mxGeometry relative="1" as="geometry">
                        <mxPoint x="2370" y="652" as="targetPoint"/>
                    </mxGeometry>
                </mxCell>
                <mxCell id="3409" style="edgeStyle=none;jumpStyle=arc;html=1;exitX=0.75;exitY=1;exitDx=0;exitDy=0;startArrow=classic;startFill=1;endArrow=none;endFill=0;startSize=6;endSize=0;strokeColor=#990000;strokeWidth=4;" edge="1" parent="1">
                    <mxGeometry relative="1" as="geometry">
                        <mxPoint x="2370" y="869.3299999999999" as="targetPoint"/>
                        <mxPoint x="2458" y="869.8299999999999" as="sourcePoint"/>
                    </mxGeometry>
                </mxCell>
                <mxCell id="3410" style="edgeStyle=none;jumpStyle=arc;html=1;exitX=0.75;exitY=1;exitDx=0;exitDy=0;startArrow=classic;startFill=1;endArrow=none;endFill=0;startSize=6;endSize=0;strokeColor=#990000;strokeWidth=4;" edge="1" parent="1">
                    <mxGeometry relative="1" as="geometry">
                        <mxPoint x="2370" y="1090" as="targetPoint"/>
                        <mxPoint x="2458" y="1090.5" as="sourcePoint"/>
                    </mxGeometry>
                </mxCell>
                <mxCell id="3411" style="edgeStyle=none;jumpStyle=arc;html=1;exitX=0.25;exitY=1;exitDx=0;exitDy=0;startArrow=classic;startFill=1;endArrow=none;endFill=0;startSize=6;endSize=0;strokeColor=#D6B656;strokeWidth=4;" edge="1" parent="1">
                    <mxGeometry relative="1" as="geometry">
                        <mxPoint x="2420" y="1267.4016279069774" as="targetPoint"/>
                        <mxPoint x="2458" y="1267.3900000000003" as="sourcePoint"/>
                    </mxGeometry>
                </mxCell>
                <mxCell id="3412" value="" style="endArrow=none;html=1;startSize=6;endSize=0;strokeWidth=4;jumpStyle=none;strokeColor=#B09500;fillColor=#e3c800;" edge="1" parent="1">
                    <mxGeometry width="50" height="50" relative="1" as="geometry">
                        <mxPoint x="2416" y="1710" as="sourcePoint"/>
                        <mxPoint x="2416" y="1257.8900000000003" as="targetPoint"/>
                    </mxGeometry>
                </mxCell>
                <mxCell id="3413" style="edgeStyle=none;jumpStyle=arc;html=1;exitX=0.25;exitY=1;exitDx=0;exitDy=0;startArrow=classic;startFill=1;endArrow=none;endFill=0;startSize=6;endSize=0;strokeColor=#D6B656;strokeWidth=4;" edge="1" parent="1">
                    <mxGeometry relative="1" as="geometry">
                        <mxPoint x="2420" y="1487.5816279069777" as="targetPoint"/>
                        <mxPoint x="2458" y="1487.5700000000006" as="sourcePoint"/>
                    </mxGeometry>
                </mxCell>
                <mxCell id="3414" style="edgeStyle=none;jumpStyle=arc;html=1;exitX=0.25;exitY=1;exitDx=0;exitDy=0;startArrow=classic;startFill=1;endArrow=none;endFill=0;startSize=6;endSize=0;strokeColor=#D6B656;strokeWidth=4;" edge="1" parent="1">
                    <mxGeometry relative="1" as="geometry">
                        <mxPoint x="2416" y="1708.6816279069785" as="targetPoint"/>
                        <mxPoint x="2454" y="1708.6700000000005" as="sourcePoint"/>
                    </mxGeometry>
                </mxCell>
                <mxCell id="3415" style="edgeStyle=none;jumpStyle=arc;html=1;exitX=0.75;exitY=1;exitDx=0;exitDy=0;startArrow=classic;startFill=1;endArrow=none;endFill=0;startSize=6;endSize=0;strokeColor=#990000;strokeWidth=4;" edge="1" parent="1">
                    <mxGeometry relative="1" as="geometry">
                        <mxPoint x="2370" y="1309.8900000000003" as="targetPoint"/>
                        <mxPoint x="2458" y="1310.3900000000003" as="sourcePoint"/>
                    </mxGeometry>
                </mxCell>
                <mxCell id="3416" style="edgeStyle=none;jumpStyle=arc;html=1;exitX=0.75;exitY=1;exitDx=0;exitDy=0;startArrow=classic;startFill=1;endArrow=none;endFill=0;startSize=6;endSize=0;strokeColor=#990000;strokeWidth=4;" edge="1" parent="1">
                    <mxGeometry relative="1" as="geometry">
                        <mxPoint x="2370" y="1527.2200000000003" as="targetPoint"/>
                        <mxPoint x="2458" y="1527.7200000000003" as="sourcePoint"/>
                    </mxGeometry>
                </mxCell>
                <mxCell id="3417" style="edgeStyle=none;jumpStyle=arc;html=1;exitX=0.75;exitY=1;exitDx=0;exitDy=0;startArrow=classic;startFill=1;endArrow=none;endFill=0;startSize=6;endSize=0;strokeColor=#990000;strokeWidth=4;" edge="1" parent="1">
                    <mxGeometry relative="1" as="geometry">
                        <mxPoint x="2370" y="1747.8900000000003" as="targetPoint"/>
                        <mxPoint x="2458" y="1748.3900000000003" as="sourcePoint"/>
                    </mxGeometry>
                </mxCell>
                <mxCell id="3677" value="" style="endArrow=none;html=1;startSize=6;endSize=0;strokeWidth=4;jumpStyle=none;strokeColor=#990000;" edge="1" parent="1">
                    <mxGeometry width="50" height="50" relative="1" as="geometry">
                        <mxPoint x="2370" y="1750" as="sourcePoint"/>
                        <mxPoint x="2370" y="490" as="targetPoint"/>
                    </mxGeometry>
                </mxCell>
                <mxCell id="3678" style="edgeStyle=none;jumpStyle=arc;html=1;startArrow=classic;startFill=1;endArrow=none;endFill=0;startSize=6;endSize=0;strokeColor=#B09500;strokeWidth=4;fillColor=#e3c800;" edge="1" parent="1">
                    <mxGeometry relative="1" as="geometry">
                        <mxPoint x="2320" y="490" as="targetPoint"/>
                        <mxPoint x="2410" y="830" as="sourcePoint"/>
                        <Array as="points">
                            <mxPoint x="2320" y="830"/>
                        </Array>
                    </mxGeometry>
                </mxCell>
                <mxCell id="3679" style="edgeStyle=none;jumpStyle=arc;html=1;startArrow=classic;startFill=1;endArrow=none;endFill=0;startSize=6;endSize=0;strokeColor=#B09500;strokeWidth=4;fillColor=#e3c800;" edge="1" parent="1">
                    <mxGeometry relative="1" as="geometry">
                        <mxPoint x="2250" y="490" as="targetPoint"/>
                        <mxPoint x="2410" y="1488" as="sourcePoint"/>
                        <Array as="points">
                            <mxPoint x="2250" y="1488"/>
                        </Array>
                    </mxGeometry>
                </mxCell>
                <mxCell id="3681" value="" style="endArrow=classic;html=1;rounded=0;strokeWidth=10;jumpStyle=arc;strokeColor=#000000;endFill=1;dashed=1;" edge="1" parent="1">
                    <mxGeometry x="-1482.5800000000002" y="543.46" width="50" height="50" as="geometry">
                        <mxPoint x="2707.42" y="630.4699999999998" as="sourcePoint"/>
                        <mxPoint x="2847.4199999999983" y="630.4699999999998" as="targetPoint"/>
                    </mxGeometry>
                </mxCell>
                <mxCell id="3686" value="" style="endArrow=classic;html=1;rounded=0;strokeWidth=10;jumpStyle=arc;strokeColor=#000000;endFill=1;dashed=1;" edge="1" parent="1">
                    <mxGeometry x="-1482.17" y="762.46" width="50" height="50" as="geometry">
                        <mxPoint x="2707.83" y="849.4699999999998" as="sourcePoint"/>
                        <mxPoint x="2847.829999999998" y="849.4699999999998" as="targetPoint"/>
                    </mxGeometry>
                </mxCell>
                <mxCell id="3687" value="" style="endArrow=classic;html=1;rounded=0;strokeWidth=10;jumpStyle=arc;strokeColor=#000000;endFill=1;dashed=1;" edge="1" parent="1">
                    <mxGeometry x="-1482.5800000000002" y="982.9899999999998" width="50" height="50" as="geometry">
                        <mxPoint x="2707.42" y="1069.999999999999" as="sourcePoint"/>
                        <mxPoint x="2847.4199999999983" y="1069.999999999999" as="targetPoint"/>
                    </mxGeometry>
                </mxCell>
                <mxCell id="3688" value="" style="endArrow=classic;html=1;rounded=0;strokeWidth=10;jumpStyle=arc;strokeColor=#000000;endFill=1;dashed=1;" edge="1" parent="1">
                    <mxGeometry x="-1482.17" y="1201.9899999999998" width="50" height="50" as="geometry">
                        <mxPoint x="2707.83" y="1288.999999999999" as="sourcePoint"/>
                        <mxPoint x="2847.829999999998" y="1288.999999999999" as="targetPoint"/>
                    </mxGeometry>
                </mxCell>
                <mxCell id="3689" value="" style="endArrow=classic;html=1;rounded=0;strokeWidth=10;jumpStyle=arc;strokeColor=#000000;endFill=1;dashed=1;" edge="1" parent="1">
                    <mxGeometry x="-1482.5800000000002" y="1422.9899999999998" width="50" height="50" as="geometry">
                        <mxPoint x="2707.42" y="1509.999999999999" as="sourcePoint"/>
                        <mxPoint x="2847.4199999999983" y="1509.999999999999" as="targetPoint"/>
                    </mxGeometry>
                </mxCell>
                <mxCell id="3690" value="" style="endArrow=classic;html=1;rounded=0;strokeWidth=10;jumpStyle=arc;strokeColor=#000000;endFill=1;dashed=1;" edge="1" parent="1">
                    <mxGeometry x="-1482.17" y="1641.9899999999998" width="50" height="50" as="geometry">
                        <mxPoint x="2707.83" y="1728.999999999999" as="sourcePoint"/>
                        <mxPoint x="2847.829999999998" y="1728.999999999999" as="targetPoint"/>
                    </mxGeometry>
                </mxCell>
                <mxCell id="3691" value="" style="endArrow=none;dashed=1;html=1;rounded=0;strokeWidth=10;jumpStyle=arc;strokeColor=#000000;" edge="1" parent="1">
                    <mxGeometry x="-878.0200000000003" y="1792.4900000000002" width="50" height="50" as="geometry">
                        <mxPoint x="3311.9799999999996" y="1879.5" as="sourcePoint"/>
                        <mxPoint x="3311.9799999999996" y="2010.499999999999" as="targetPoint"/>
                    </mxGeometry>
                </mxCell>
                <mxCell id="3692" style="edgeStyle=orthogonalEdgeStyle;rounded=0;orthogonalLoop=1;jettySize=auto;html=1;fontSize=30;fontColor=#990000;startArrow=none;startFill=0;endArrow=classic;endFill=1;strokeWidth=5;exitX=1;exitY=0.5;exitDx=0;exitDy=0;" edge="1" parent="1" source="3693">
                    <mxGeometry relative="1" as="geometry">
                        <mxPoint x="3312.76" y="988.5" as="targetPoint"/>
                        <Array as="points">
                            <mxPoint x="3312.76" y="968.5"/>
                            <mxPoint x="3312.76" y="968.5"/>
                        </Array>
                    </mxGeometry>
                </mxCell>
                <mxCell id="3693" value="" style="ellipse;whiteSpace=wrap;html=1;aspect=fixed;fontSize=30;strokeColor=#000000;fillColor=#FFD966;opacity=80;rotation=90;" vertex="1" parent="1">
                    <mxGeometry x="3224.76" y="769.5" width="174.83" height="174.83" as="geometry"/>
                </mxCell>
                <mxCell id="3694" style="edgeStyle=none;jumpStyle=arc;html=1;entryX=0.5;entryY=1;entryDx=0;entryDy=0;strokeWidth=3;" edge="1" parent="1" source="3695" target="3701">
                    <mxGeometry relative="1" as="geometry"/>
                </mxCell>
                <mxCell id="3695" value="" style="ellipse;whiteSpace=wrap;html=1;aspect=fixed;fillColor=#67AB9F;strokeWidth=4;strokeColor=#000000;rotation=90;" vertex="1" parent="1">
                    <mxGeometry x="3240.61" y="829.5" width="40" height="40" as="geometry"/>
                </mxCell>
                <mxCell id="3696" value="" style="endArrow=none;html=1;rounded=0;strokeColor=#000000;strokeWidth=4;exitX=0;exitY=0;exitDx=0;exitDy=0;entryX=1;entryY=1;entryDx=0;entryDy=0;" edge="1" parent="1" source="3695" target="3695">
                    <mxGeometry width="50" height="50" relative="1" as="geometry">
                        <mxPoint x="3346.76" y="841.5" as="sourcePoint"/>
                        <mxPoint x="3377.76" y="866.5" as="targetPoint"/>
                    </mxGeometry>
                </mxCell>
                <mxCell id="3697" value="" style="endArrow=none;html=1;rounded=0;strokeColor=#000000;strokeWidth=4;exitX=0;exitY=1;exitDx=0;exitDy=0;entryX=1;entryY=0;entryDx=0;entryDy=0;" edge="1" parent="1" source="3695" target="3695">
                    <mxGeometry width="50" height="50" relative="1" as="geometry">
                        <mxPoint x="3401.76" y="797.5" as="sourcePoint"/>
                        <mxPoint x="3366.76" y="825.5" as="targetPoint"/>
                    </mxGeometry>
                </mxCell>
                <mxCell id="3698" style="edgeStyle=none;jumpStyle=arc;html=1;entryX=0;entryY=0.5;entryDx=0;entryDy=0;strokeWidth=3;" edge="1" parent="1" source="3699" target="3695">
                    <mxGeometry relative="1" as="geometry">
                        <Array as="points">
                            <mxPoint x="3260.17" y="803.5"/>
                        </Array>
                    </mxGeometry>
                </mxCell>
                <mxCell id="3699" value="" style="whiteSpace=wrap;html=1;aspect=fixed;fillColor=#dae8fc;strokeColor=#000000;strokeWidth=4;rotation=90;" vertex="1" parent="1">
                    <mxGeometry x="3280.61" y="789.5" width="27.5" height="27.5" as="geometry"/>
                </mxCell>
                <mxCell id="3700" style="edgeStyle=none;jumpStyle=arc;html=1;exitX=0;exitY=0.5;exitDx=0;exitDy=0;entryX=0;entryY=0.5;entryDx=0;entryDy=0;strokeWidth=3;startArrow=classic;startFill=1;endArrow=none;endFill=0;" edge="1" parent="1" source="3701" target="3693">
                    <mxGeometry relative="1" as="geometry">
                        <Array as="points">
                            <mxPoint x="3343.17" y="789.5"/>
                            <mxPoint x="3312.17" y="789.5"/>
                        </Array>
                    </mxGeometry>
                </mxCell>
                <mxCell id="3701" value="" style="ellipse;whiteSpace=wrap;html=1;aspect=fixed;fillColor=#e1d5e7;strokeColor=#000000;strokeWidth=4;rotation=90;" vertex="1" parent="1">
                    <mxGeometry x="3322.17" y="829.5" width="40" height="40" as="geometry"/>
                </mxCell>
                <mxCell id="3702" value="" style="endArrow=none;html=1;rounded=0;strokeColor=#000000;entryX=0.5;entryY=0;entryDx=0;entryDy=0;exitX=0.5;exitY=1;exitDx=0;exitDy=0;strokeWidth=4;" edge="1" parent="1" source="3701" target="3701">
                    <mxGeometry width="50" height="50" relative="1" as="geometry">
                        <mxPoint x="3331.76" y="836.5" as="sourcePoint"/>
                        <mxPoint x="3381.76" y="886.5" as="targetPoint"/>
                    </mxGeometry>
                </mxCell>
                <mxCell id="3703" value="" style="endArrow=none;html=1;rounded=0;strokeColor=#000000;entryX=0;entryY=0.5;entryDx=0;entryDy=0;exitX=1;exitY=0.5;exitDx=0;exitDy=0;strokeWidth=4;" edge="1" parent="1" source="3701" target="3701">
                    <mxGeometry width="50" height="50" relative="1" as="geometry">
                        <mxPoint x="3431.76" y="886.5" as="sourcePoint"/>
                        <mxPoint x="3491.76" y="886.5" as="targetPoint"/>
                    </mxGeometry>
                </mxCell>
                <mxCell id="3704" style="edgeStyle=orthogonalEdgeStyle;rounded=1;orthogonalLoop=1;jettySize=auto;html=1;exitX=1;exitY=0.5;exitDx=0;exitDy=0;entryX=1;entryY=0.5;entryDx=0;entryDy=0;fontSize=30;fontColor=#990000;startArrow=none;startFill=0;endArrow=classic;endFill=1;strokeWidth=4;endSize=0;startSize=6;" edge="1" parent="1" source="3705" target="3693">
                    <mxGeometry relative="1" as="geometry">
                        <Array as="points">
                            <mxPoint x="3342.17" y="919.5"/>
                            <mxPoint x="3312.17" y="919.5"/>
                        </Array>
                    </mxGeometry>
                </mxCell>
                <mxCell id="3705" value="" style="rounded=0;whiteSpace=wrap;html=1;glass=0;strokeColor=#000000;strokeWidth=4;fillColor=#FFD966;rotation=90;" vertex="1" parent="1">
                    <mxGeometry x="3332.17" y="879.5" width="20" height="36" as="geometry"/>
                </mxCell>
                <mxCell id="3706" value="" style="endArrow=none;html=1;rounded=0;startSize=1;endSize=1;strokeColor=#000000;strokeWidth=4;jumpStyle=none;jumpSize=6;" edge="1" parent="1">
                    <mxGeometry width="50" height="50" relative="1" as="geometry">
                        <mxPoint x="3324.76" y="886.6700000000001" as="sourcePoint"/>
                        <mxPoint x="3334.76" y="896.6700000000001" as="targetPoint"/>
                    </mxGeometry>
                </mxCell>
                <mxCell id="3707" value="" style="endArrow=none;html=1;rounded=0;startSize=1;endSize=1;strokeColor=#000000;strokeWidth=4;jumpStyle=none;jumpSize=6;" edge="1" parent="1">
                    <mxGeometry width="50" height="50" relative="1" as="geometry">
                        <mxPoint x="3334.76" y="896.6700000000001" as="sourcePoint"/>
                        <mxPoint x="3324.76" y="906.6700000000001" as="targetPoint"/>
                    </mxGeometry>
                </mxCell>
                <mxCell id="3708" style="edgeStyle=orthogonalEdgeStyle;rounded=0;jumpStyle=none;jumpSize=6;orthogonalLoop=1;jettySize=auto;html=1;entryX=0;entryY=0.5;entryDx=0;entryDy=0;startArrow=none;startFill=0;endArrow=classic;endFill=1;startSize=1;endSize=1;strokeColor=#000000;strokeWidth=4;" edge="1" parent="1" source="3701" target="3705">
                    <mxGeometry relative="1" as="geometry"/>
                </mxCell>
                <mxCell id="3709" style="edgeStyle=orthogonalEdgeStyle;rounded=0;orthogonalLoop=1;jettySize=auto;html=1;fontSize=30;fontColor=#990000;startArrow=none;startFill=0;endArrow=classic;endFill=1;strokeWidth=5;exitX=1;exitY=0.5;exitDx=0;exitDy=0;" edge="1" parent="1" source="3710">
                    <mxGeometry relative="1" as="geometry">
                        <mxPoint x="3312.76" y="769.5" as="targetPoint"/>
                        <Array as="points">
                            <mxPoint x="3312.76" y="749.5"/>
                            <mxPoint x="3312.76" y="749.5"/>
                        </Array>
                    </mxGeometry>
                </mxCell>
                <mxCell id="3710" value="" style="ellipse;whiteSpace=wrap;html=1;aspect=fixed;fontSize=30;strokeColor=#000000;fillColor=#FFD966;opacity=80;rotation=90;" vertex="1" parent="1">
                    <mxGeometry x="3224.76" y="550.5" width="174.83" height="174.83" as="geometry"/>
                </mxCell>
                <mxCell id="3711" style="edgeStyle=none;jumpStyle=arc;html=1;entryX=0.5;entryY=1;entryDx=0;entryDy=0;strokeWidth=3;" edge="1" parent="1" source="3712" target="3718">
                    <mxGeometry relative="1" as="geometry"/>
                </mxCell>
                <mxCell id="3712" value="" style="ellipse;whiteSpace=wrap;html=1;aspect=fixed;fillColor=#67AB9F;strokeWidth=4;strokeColor=#000000;rotation=90;" vertex="1" parent="1">
                    <mxGeometry x="3240.61" y="610.5" width="40" height="40" as="geometry"/>
                </mxCell>
                <mxCell id="3713" value="" style="endArrow=none;html=1;rounded=0;strokeColor=#000000;strokeWidth=4;exitX=0;exitY=0;exitDx=0;exitDy=0;entryX=1;entryY=1;entryDx=0;entryDy=0;" edge="1" parent="1" source="3712" target="3712">
                    <mxGeometry width="50" height="50" relative="1" as="geometry">
                        <mxPoint x="3346.76" y="622.5" as="sourcePoint"/>
                        <mxPoint x="3377.76" y="647.5" as="targetPoint"/>
                    </mxGeometry>
                </mxCell>
                <mxCell id="3714" value="" style="endArrow=none;html=1;rounded=0;strokeColor=#000000;strokeWidth=4;exitX=0;exitY=1;exitDx=0;exitDy=0;entryX=1;entryY=0;entryDx=0;entryDy=0;" edge="1" parent="1" source="3712" target="3712">
                    <mxGeometry width="50" height="50" relative="1" as="geometry">
                        <mxPoint x="3401.76" y="578.5" as="sourcePoint"/>
                        <mxPoint x="3366.76" y="606.5" as="targetPoint"/>
                    </mxGeometry>
                </mxCell>
                <mxCell id="3715" style="edgeStyle=none;jumpStyle=arc;html=1;entryX=0;entryY=0.5;entryDx=0;entryDy=0;strokeWidth=3;" edge="1" parent="1" source="3716" target="3712">
                    <mxGeometry relative="1" as="geometry">
                        <Array as="points">
                            <mxPoint x="3260.17" y="584.5"/>
                        </Array>
                    </mxGeometry>
                </mxCell>
                <mxCell id="3716" value="" style="whiteSpace=wrap;html=1;aspect=fixed;fillColor=#dae8fc;strokeColor=#000000;strokeWidth=4;rotation=90;" vertex="1" parent="1">
                    <mxGeometry x="3280.61" y="570.5" width="27.5" height="27.5" as="geometry"/>
                </mxCell>
                <mxCell id="3717" style="edgeStyle=none;jumpStyle=arc;html=1;exitX=0;exitY=0.5;exitDx=0;exitDy=0;entryX=0;entryY=0.5;entryDx=0;entryDy=0;strokeWidth=3;startArrow=classic;startFill=1;endArrow=none;endFill=0;" edge="1" parent="1" source="3718" target="3710">
                    <mxGeometry relative="1" as="geometry">
                        <Array as="points">
                            <mxPoint x="3343.17" y="570.5"/>
                            <mxPoint x="3312.17" y="570.5"/>
                        </Array>
                    </mxGeometry>
                </mxCell>
                <mxCell id="3718" value="" style="ellipse;whiteSpace=wrap;html=1;aspect=fixed;fillColor=#e1d5e7;strokeColor=#000000;strokeWidth=4;rotation=90;" vertex="1" parent="1">
                    <mxGeometry x="3322.17" y="610.5" width="40" height="40" as="geometry"/>
                </mxCell>
                <mxCell id="3719" value="" style="endArrow=none;html=1;rounded=0;strokeColor=#000000;entryX=0.5;entryY=0;entryDx=0;entryDy=0;exitX=0.5;exitY=1;exitDx=0;exitDy=0;strokeWidth=4;" edge="1" parent="1" source="3718" target="3718">
                    <mxGeometry width="50" height="50" relative="1" as="geometry">
                        <mxPoint x="3331.76" y="617.5" as="sourcePoint"/>
                        <mxPoint x="3381.76" y="667.5" as="targetPoint"/>
                    </mxGeometry>
                </mxCell>
                <mxCell id="3720" value="" style="endArrow=none;html=1;rounded=0;strokeColor=#000000;entryX=0;entryY=0.5;entryDx=0;entryDy=0;exitX=1;exitY=0.5;exitDx=0;exitDy=0;strokeWidth=4;" edge="1" parent="1" source="3718" target="3718">
                    <mxGeometry width="50" height="50" relative="1" as="geometry">
                        <mxPoint x="3431.76" y="667.5" as="sourcePoint"/>
                        <mxPoint x="3491.76" y="667.5" as="targetPoint"/>
                    </mxGeometry>
                </mxCell>
                <mxCell id="3721" style="edgeStyle=orthogonalEdgeStyle;rounded=1;orthogonalLoop=1;jettySize=auto;html=1;exitX=1;exitY=0.5;exitDx=0;exitDy=0;entryX=1;entryY=0.5;entryDx=0;entryDy=0;fontSize=30;fontColor=#990000;startArrow=none;startFill=0;endArrow=classic;endFill=1;strokeWidth=4;endSize=0;startSize=6;" edge="1" parent="1" source="3722" target="3710">
                    <mxGeometry relative="1" as="geometry">
                        <Array as="points">
                            <mxPoint x="3342.17" y="700.5"/>
                            <mxPoint x="3312.17" y="700.5"/>
                        </Array>
                    </mxGeometry>
                </mxCell>
                <mxCell id="3722" value="" style="rounded=0;whiteSpace=wrap;html=1;glass=0;strokeColor=#000000;strokeWidth=4;fillColor=#FFD966;rotation=90;" vertex="1" parent="1">
                    <mxGeometry x="3332.17" y="660.5" width="20" height="36" as="geometry"/>
                </mxCell>
                <mxCell id="3723" value="" style="endArrow=none;html=1;rounded=0;startSize=1;endSize=1;strokeColor=#000000;strokeWidth=4;jumpStyle=none;jumpSize=6;" edge="1" parent="1">
                    <mxGeometry width="50" height="50" relative="1" as="geometry">
                        <mxPoint x="3324.76" y="667.6700000000001" as="sourcePoint"/>
                        <mxPoint x="3334.76" y="677.6700000000001" as="targetPoint"/>
                    </mxGeometry>
                </mxCell>
                <mxCell id="3724" value="" style="endArrow=none;html=1;rounded=0;startSize=1;endSize=1;strokeColor=#000000;strokeWidth=4;jumpStyle=none;jumpSize=6;" edge="1" parent="1">
                    <mxGeometry width="50" height="50" relative="1" as="geometry">
                        <mxPoint x="3334.76" y="677.6700000000001" as="sourcePoint"/>
                        <mxPoint x="3324.76" y="687.6700000000001" as="targetPoint"/>
                    </mxGeometry>
                </mxCell>
                <mxCell id="3725" style="edgeStyle=orthogonalEdgeStyle;rounded=0;jumpStyle=none;jumpSize=6;orthogonalLoop=1;jettySize=auto;html=1;entryX=0;entryY=0.5;entryDx=0;entryDy=0;startArrow=none;startFill=0;endArrow=classic;endFill=1;startSize=1;endSize=1;strokeColor=#000000;strokeWidth=4;" edge="1" parent="1" source="3718" target="3722">
                    <mxGeometry relative="1" as="geometry"/>
                </mxCell>
                <mxCell id="3726" style="edgeStyle=orthogonalEdgeStyle;rounded=0;orthogonalLoop=1;jettySize=auto;html=1;fontSize=30;fontColor=#990000;startArrow=none;startFill=0;endArrow=classic;endFill=1;strokeWidth=5;exitX=1;exitY=0.5;exitDx=0;exitDy=0;" edge="1" parent="1" source="3727">
                    <mxGeometry relative="1" as="geometry">
                        <mxPoint x="3313.17" y="1427.5" as="targetPoint"/>
                        <Array as="points">
                            <mxPoint x="3313.17" y="1407.5"/>
                            <mxPoint x="3313.17" y="1407.5"/>
                        </Array>
                    </mxGeometry>
                </mxCell>
                <mxCell id="3727" value="" style="ellipse;whiteSpace=wrap;html=1;aspect=fixed;fontSize=30;strokeColor=#000000;fillColor=#FFD966;opacity=80;rotation=90;" vertex="1" parent="1">
                    <mxGeometry x="3225.17" y="1208.5" width="174.83" height="174.83" as="geometry"/>
                </mxCell>
                <mxCell id="3728" style="edgeStyle=none;jumpStyle=arc;html=1;entryX=0.5;entryY=1;entryDx=0;entryDy=0;strokeWidth=3;" edge="1" parent="1" source="3729" target="3735">
                    <mxGeometry relative="1" as="geometry"/>
                </mxCell>
                <mxCell id="3729" value="" style="ellipse;whiteSpace=wrap;html=1;aspect=fixed;fillColor=#67AB9F;strokeWidth=4;strokeColor=#000000;rotation=90;" vertex="1" parent="1">
                    <mxGeometry x="3241.02" y="1268.5" width="40" height="40" as="geometry"/>
                </mxCell>
                <mxCell id="3730" value="" style="endArrow=none;html=1;rounded=0;strokeColor=#000000;strokeWidth=4;exitX=0;exitY=0;exitDx=0;exitDy=0;entryX=1;entryY=1;entryDx=0;entryDy=0;" edge="1" parent="1" source="3729" target="3729">
                    <mxGeometry width="50" height="50" relative="1" as="geometry">
                        <mxPoint x="3347.17" y="1280.5" as="sourcePoint"/>
                        <mxPoint x="3378.17" y="1305.5" as="targetPoint"/>
                    </mxGeometry>
                </mxCell>
                <mxCell id="3731" value="" style="endArrow=none;html=1;rounded=0;strokeColor=#000000;strokeWidth=4;exitX=0;exitY=1;exitDx=0;exitDy=0;entryX=1;entryY=0;entryDx=0;entryDy=0;" edge="1" parent="1" source="3729" target="3729">
                    <mxGeometry width="50" height="50" relative="1" as="geometry">
                        <mxPoint x="3402.17" y="1236.5" as="sourcePoint"/>
                        <mxPoint x="3367.17" y="1264.5" as="targetPoint"/>
                    </mxGeometry>
                </mxCell>
                <mxCell id="3732" style="edgeStyle=none;jumpStyle=arc;html=1;entryX=0;entryY=0.5;entryDx=0;entryDy=0;strokeWidth=3;" edge="1" parent="1" source="3733" target="3729">
                    <mxGeometry relative="1" as="geometry">
                        <Array as="points">
                            <mxPoint x="3260.58" y="1242.5"/>
                        </Array>
                    </mxGeometry>
                </mxCell>
                <mxCell id="3733" value="" style="whiteSpace=wrap;html=1;aspect=fixed;fillColor=#dae8fc;strokeColor=#000000;strokeWidth=4;rotation=90;" vertex="1" parent="1">
                    <mxGeometry x="3281.02" y="1228.5" width="27.5" height="27.5" as="geometry"/>
                </mxCell>
                <mxCell id="3734" style="edgeStyle=none;jumpStyle=arc;html=1;exitX=0;exitY=0.5;exitDx=0;exitDy=0;entryX=0;entryY=0.5;entryDx=0;entryDy=0;strokeWidth=3;startArrow=classic;startFill=1;endArrow=none;endFill=0;" edge="1" parent="1" source="3735" target="3727">
                    <mxGeometry relative="1" as="geometry">
                        <Array as="points">
                            <mxPoint x="3343.58" y="1228.5"/>
                            <mxPoint x="3312.58" y="1228.5"/>
                        </Array>
                    </mxGeometry>
                </mxCell>
                <mxCell id="3735" value="" style="ellipse;whiteSpace=wrap;html=1;aspect=fixed;fillColor=#e1d5e7;strokeColor=#000000;strokeWidth=4;rotation=90;" vertex="1" parent="1">
                    <mxGeometry x="3322.58" y="1268.5" width="40" height="40" as="geometry"/>
                </mxCell>
                <mxCell id="3736" value="" style="endArrow=none;html=1;rounded=0;strokeColor=#000000;entryX=0.5;entryY=0;entryDx=0;entryDy=0;exitX=0.5;exitY=1;exitDx=0;exitDy=0;strokeWidth=4;" edge="1" parent="1" source="3735" target="3735">
                    <mxGeometry width="50" height="50" relative="1" as="geometry">
                        <mxPoint x="3332.17" y="1275.5" as="sourcePoint"/>
                        <mxPoint x="3382.17" y="1325.5" as="targetPoint"/>
                    </mxGeometry>
                </mxCell>
                <mxCell id="3737" value="" style="endArrow=none;html=1;rounded=0;strokeColor=#000000;entryX=0;entryY=0.5;entryDx=0;entryDy=0;exitX=1;exitY=0.5;exitDx=0;exitDy=0;strokeWidth=4;" edge="1" parent="1" source="3735" target="3735">
                    <mxGeometry width="50" height="50" relative="1" as="geometry">
                        <mxPoint x="3432.17" y="1325.5" as="sourcePoint"/>
                        <mxPoint x="3492.17" y="1325.5" as="targetPoint"/>
                    </mxGeometry>
                </mxCell>
                <mxCell id="3738" style="edgeStyle=orthogonalEdgeStyle;rounded=1;orthogonalLoop=1;jettySize=auto;html=1;exitX=1;exitY=0.5;exitDx=0;exitDy=0;entryX=1;entryY=0.5;entryDx=0;entryDy=0;fontSize=30;fontColor=#990000;startArrow=none;startFill=0;endArrow=classic;endFill=1;strokeWidth=4;endSize=0;startSize=6;" edge="1" parent="1" source="3739" target="3727">
                    <mxGeometry relative="1" as="geometry">
                        <Array as="points">
                            <mxPoint x="3342.58" y="1358.5"/>
                            <mxPoint x="3312.58" y="1358.5"/>
                        </Array>
                    </mxGeometry>
                </mxCell>
                <mxCell id="3739" value="" style="rounded=0;whiteSpace=wrap;html=1;glass=0;strokeColor=#000000;strokeWidth=4;fillColor=#FFD966;rotation=90;" vertex="1" parent="1">
                    <mxGeometry x="3332.58" y="1318.5" width="20" height="36" as="geometry"/>
                </mxCell>
                <mxCell id="3740" value="" style="endArrow=none;html=1;rounded=0;startSize=1;endSize=1;strokeColor=#000000;strokeWidth=4;jumpStyle=none;jumpSize=6;" edge="1" parent="1">
                    <mxGeometry width="50" height="50" relative="1" as="geometry">
                        <mxPoint x="3325.17" y="1325.67" as="sourcePoint"/>
                        <mxPoint x="3335.17" y="1335.67" as="targetPoint"/>
                    </mxGeometry>
                </mxCell>
                <mxCell id="3741" value="" style="endArrow=none;html=1;rounded=0;startSize=1;endSize=1;strokeColor=#000000;strokeWidth=4;jumpStyle=none;jumpSize=6;" edge="1" parent="1">
                    <mxGeometry width="50" height="50" relative="1" as="geometry">
                        <mxPoint x="3335.17" y="1335.67" as="sourcePoint"/>
                        <mxPoint x="3325.17" y="1345.67" as="targetPoint"/>
                    </mxGeometry>
                </mxCell>
                <mxCell id="3742" style="edgeStyle=orthogonalEdgeStyle;rounded=0;jumpStyle=none;jumpSize=6;orthogonalLoop=1;jettySize=auto;html=1;entryX=0;entryY=0.5;entryDx=0;entryDy=0;startArrow=none;startFill=0;endArrow=classic;endFill=1;startSize=1;endSize=1;strokeColor=#000000;strokeWidth=4;" edge="1" parent="1" source="3735" target="3739">
                    <mxGeometry relative="1" as="geometry"/>
                </mxCell>
                <mxCell id="3743" style="edgeStyle=orthogonalEdgeStyle;rounded=0;orthogonalLoop=1;jettySize=auto;html=1;fontSize=30;fontColor=#990000;startArrow=none;startFill=0;endArrow=classic;endFill=1;strokeWidth=5;exitX=1;exitY=0.5;exitDx=0;exitDy=0;" edge="1" parent="1" source="3744">
                    <mxGeometry relative="1" as="geometry">
                        <mxPoint x="3313.17" y="1208.5" as="targetPoint"/>
                        <Array as="points">
                            <mxPoint x="3313.17" y="1188.5"/>
                            <mxPoint x="3313.17" y="1188.5"/>
                        </Array>
                    </mxGeometry>
                </mxCell>
                <mxCell id="3744" value="" style="ellipse;whiteSpace=wrap;html=1;aspect=fixed;fontSize=30;strokeColor=#000000;fillColor=#FFD966;opacity=80;rotation=90;" vertex="1" parent="1">
                    <mxGeometry x="3225.17" y="989.5" width="174.83" height="174.83" as="geometry"/>
                </mxCell>
                <mxCell id="3745" style="edgeStyle=none;jumpStyle=arc;html=1;entryX=0.5;entryY=1;entryDx=0;entryDy=0;strokeWidth=3;" edge="1" parent="1" source="3746" target="3752">
                    <mxGeometry relative="1" as="geometry"/>
                </mxCell>
                <mxCell id="3746" value="" style="ellipse;whiteSpace=wrap;html=1;aspect=fixed;fillColor=#67AB9F;strokeWidth=4;strokeColor=#000000;rotation=90;" vertex="1" parent="1">
                    <mxGeometry x="3241.02" y="1049.5" width="40" height="40" as="geometry"/>
                </mxCell>
                <mxCell id="3747" value="" style="endArrow=none;html=1;rounded=0;strokeColor=#000000;strokeWidth=4;exitX=0;exitY=0;exitDx=0;exitDy=0;entryX=1;entryY=1;entryDx=0;entryDy=0;" edge="1" parent="1" source="3746" target="3746">
                    <mxGeometry width="50" height="50" relative="1" as="geometry">
                        <mxPoint x="3347.17" y="1061.5" as="sourcePoint"/>
                        <mxPoint x="3378.17" y="1086.5" as="targetPoint"/>
                    </mxGeometry>
                </mxCell>
                <mxCell id="3748" value="" style="endArrow=none;html=1;rounded=0;strokeColor=#000000;strokeWidth=4;exitX=0;exitY=1;exitDx=0;exitDy=0;entryX=1;entryY=0;entryDx=0;entryDy=0;" edge="1" parent="1" source="3746" target="3746">
                    <mxGeometry width="50" height="50" relative="1" as="geometry">
                        <mxPoint x="3402.17" y="1017.5" as="sourcePoint"/>
                        <mxPoint x="3367.17" y="1045.5" as="targetPoint"/>
                    </mxGeometry>
                </mxCell>
                <mxCell id="3749" style="edgeStyle=none;jumpStyle=arc;html=1;entryX=0;entryY=0.5;entryDx=0;entryDy=0;strokeWidth=3;" edge="1" parent="1" source="3750" target="3746">
                    <mxGeometry relative="1" as="geometry">
                        <Array as="points">
                            <mxPoint x="3260.58" y="1023.5"/>
                        </Array>
                    </mxGeometry>
                </mxCell>
                <mxCell id="3750" value="" style="whiteSpace=wrap;html=1;aspect=fixed;fillColor=#dae8fc;strokeColor=#000000;strokeWidth=4;rotation=90;" vertex="1" parent="1">
                    <mxGeometry x="3281.02" y="1009.5" width="27.5" height="27.5" as="geometry"/>
                </mxCell>
                <mxCell id="3751" style="edgeStyle=none;jumpStyle=arc;html=1;exitX=0;exitY=0.5;exitDx=0;exitDy=0;entryX=0;entryY=0.5;entryDx=0;entryDy=0;strokeWidth=3;startArrow=classic;startFill=1;endArrow=none;endFill=0;" edge="1" parent="1" source="3752" target="3744">
                    <mxGeometry relative="1" as="geometry">
                        <Array as="points">
                            <mxPoint x="3343.58" y="1009.5"/>
                            <mxPoint x="3312.58" y="1009.5"/>
                        </Array>
                    </mxGeometry>
                </mxCell>
                <mxCell id="3752" value="" style="ellipse;whiteSpace=wrap;html=1;aspect=fixed;fillColor=#e1d5e7;strokeColor=#000000;strokeWidth=4;rotation=90;" vertex="1" parent="1">
                    <mxGeometry x="3322.58" y="1049.5" width="40" height="40" as="geometry"/>
                </mxCell>
                <mxCell id="3753" value="" style="endArrow=none;html=1;rounded=0;strokeColor=#000000;entryX=0.5;entryY=0;entryDx=0;entryDy=0;exitX=0.5;exitY=1;exitDx=0;exitDy=0;strokeWidth=4;" edge="1" parent="1" source="3752" target="3752">
                    <mxGeometry width="50" height="50" relative="1" as="geometry">
                        <mxPoint x="3332.17" y="1056.5" as="sourcePoint"/>
                        <mxPoint x="3382.17" y="1106.5" as="targetPoint"/>
                    </mxGeometry>
                </mxCell>
                <mxCell id="3754" value="" style="endArrow=none;html=1;rounded=0;strokeColor=#000000;entryX=0;entryY=0.5;entryDx=0;entryDy=0;exitX=1;exitY=0.5;exitDx=0;exitDy=0;strokeWidth=4;" edge="1" parent="1" source="3752" target="3752">
                    <mxGeometry width="50" height="50" relative="1" as="geometry">
                        <mxPoint x="3432.17" y="1106.5" as="sourcePoint"/>
                        <mxPoint x="3492.17" y="1106.5" as="targetPoint"/>
                    </mxGeometry>
                </mxCell>
                <mxCell id="3755" style="edgeStyle=orthogonalEdgeStyle;rounded=1;orthogonalLoop=1;jettySize=auto;html=1;exitX=1;exitY=0.5;exitDx=0;exitDy=0;entryX=1;entryY=0.5;entryDx=0;entryDy=0;fontSize=30;fontColor=#990000;startArrow=none;startFill=0;endArrow=classic;endFill=1;strokeWidth=4;endSize=0;startSize=6;" edge="1" parent="1" source="3756" target="3744">
                    <mxGeometry relative="1" as="geometry">
                        <Array as="points">
                            <mxPoint x="3342.58" y="1139.5"/>
                            <mxPoint x="3312.58" y="1139.5"/>
                        </Array>
                    </mxGeometry>
                </mxCell>
                <mxCell id="3756" value="" style="rounded=0;whiteSpace=wrap;html=1;glass=0;strokeColor=#000000;strokeWidth=4;fillColor=#FFD966;rotation=90;" vertex="1" parent="1">
                    <mxGeometry x="3332.58" y="1099.5" width="20" height="36" as="geometry"/>
                </mxCell>
                <mxCell id="3757" value="" style="endArrow=none;html=1;rounded=0;startSize=1;endSize=1;strokeColor=#000000;strokeWidth=4;jumpStyle=none;jumpSize=6;" edge="1" parent="1">
                    <mxGeometry width="50" height="50" relative="1" as="geometry">
                        <mxPoint x="3325.17" y="1106.67" as="sourcePoint"/>
                        <mxPoint x="3335.17" y="1116.67" as="targetPoint"/>
                    </mxGeometry>
                </mxCell>
                <mxCell id="3758" value="" style="endArrow=none;html=1;rounded=0;startSize=1;endSize=1;strokeColor=#000000;strokeWidth=4;jumpStyle=none;jumpSize=6;" edge="1" parent="1">
                    <mxGeometry width="50" height="50" relative="1" as="geometry">
                        <mxPoint x="3335.17" y="1116.67" as="sourcePoint"/>
                        <mxPoint x="3325.17" y="1126.67" as="targetPoint"/>
                    </mxGeometry>
                </mxCell>
                <mxCell id="3759" style="edgeStyle=orthogonalEdgeStyle;rounded=0;jumpStyle=none;jumpSize=6;orthogonalLoop=1;jettySize=auto;html=1;entryX=0;entryY=0.5;entryDx=0;entryDy=0;startArrow=none;startFill=0;endArrow=classic;endFill=1;startSize=1;endSize=1;strokeColor=#000000;strokeWidth=4;" edge="1" parent="1" source="3752" target="3756">
                    <mxGeometry relative="1" as="geometry"/>
                </mxCell>
                <mxCell id="3760" style="edgeStyle=orthogonalEdgeStyle;rounded=0;orthogonalLoop=1;jettySize=auto;html=1;fontSize=30;fontColor=#990000;startArrow=none;startFill=0;endArrow=classic;endFill=1;strokeWidth=5;exitX=1;exitY=0.5;exitDx=0;exitDy=0;" edge="1" parent="1" source="3761">
                    <mxGeometry relative="1" as="geometry">
                        <mxPoint x="3313.17" y="1648.5" as="targetPoint"/>
                        <Array as="points">
                            <mxPoint x="3313.17" y="1628.5"/>
                            <mxPoint x="3313.17" y="1628.5"/>
                        </Array>
                    </mxGeometry>
                </mxCell>
                <mxCell id="3761" value="" style="ellipse;whiteSpace=wrap;html=1;aspect=fixed;fontSize=30;strokeColor=#000000;fillColor=#FFD966;opacity=80;rotation=90;" vertex="1" parent="1">
                    <mxGeometry x="3225.17" y="1429.5" width="174.83" height="174.83" as="geometry"/>
                </mxCell>
                <mxCell id="3762" style="edgeStyle=none;jumpStyle=arc;html=1;entryX=0.5;entryY=1;entryDx=0;entryDy=0;strokeWidth=3;" edge="1" parent="1" source="3763" target="3769">
                    <mxGeometry relative="1" as="geometry"/>
                </mxCell>
                <mxCell id="3763" value="" style="ellipse;whiteSpace=wrap;html=1;aspect=fixed;fillColor=#67AB9F;strokeWidth=4;strokeColor=#000000;rotation=90;" vertex="1" parent="1">
                    <mxGeometry x="3241.02" y="1489.5" width="40" height="40" as="geometry"/>
                </mxCell>
                <mxCell id="3764" value="" style="endArrow=none;html=1;rounded=0;strokeColor=#000000;strokeWidth=4;exitX=0;exitY=0;exitDx=0;exitDy=0;entryX=1;entryY=1;entryDx=0;entryDy=0;" edge="1" parent="1" source="3763" target="3763">
                    <mxGeometry width="50" height="50" relative="1" as="geometry">
                        <mxPoint x="3347.17" y="1501.5" as="sourcePoint"/>
                        <mxPoint x="3378.17" y="1526.5" as="targetPoint"/>
                    </mxGeometry>
                </mxCell>
                <mxCell id="3765" value="" style="endArrow=none;html=1;rounded=0;strokeColor=#000000;strokeWidth=4;exitX=0;exitY=1;exitDx=0;exitDy=0;entryX=1;entryY=0;entryDx=0;entryDy=0;" edge="1" parent="1" source="3763" target="3763">
                    <mxGeometry width="50" height="50" relative="1" as="geometry">
                        <mxPoint x="3402.17" y="1457.5" as="sourcePoint"/>
                        <mxPoint x="3367.17" y="1485.5" as="targetPoint"/>
                    </mxGeometry>
                </mxCell>
                <mxCell id="3766" style="edgeStyle=none;jumpStyle=arc;html=1;entryX=0;entryY=0.5;entryDx=0;entryDy=0;strokeWidth=3;" edge="1" parent="1" source="3767" target="3763">
                    <mxGeometry relative="1" as="geometry">
                        <Array as="points">
                            <mxPoint x="3260.58" y="1463.5"/>
                        </Array>
                    </mxGeometry>
                </mxCell>
                <mxCell id="3767" value="" style="whiteSpace=wrap;html=1;aspect=fixed;fillColor=#dae8fc;strokeColor=#000000;strokeWidth=4;rotation=90;" vertex="1" parent="1">
                    <mxGeometry x="3281.02" y="1449.5" width="27.5" height="27.5" as="geometry"/>
                </mxCell>
                <mxCell id="3768" style="edgeStyle=none;jumpStyle=arc;html=1;exitX=0;exitY=0.5;exitDx=0;exitDy=0;entryX=0;entryY=0.5;entryDx=0;entryDy=0;strokeWidth=3;startArrow=classic;startFill=1;endArrow=none;endFill=0;" edge="1" parent="1" source="3769" target="3761">
                    <mxGeometry relative="1" as="geometry">
                        <Array as="points">
                            <mxPoint x="3343.58" y="1449.5"/>
                            <mxPoint x="3312.58" y="1449.5"/>
                        </Array>
                    </mxGeometry>
                </mxCell>
                <mxCell id="3769" value="" style="ellipse;whiteSpace=wrap;html=1;aspect=fixed;fillColor=#e1d5e7;strokeColor=#000000;strokeWidth=4;rotation=90;" vertex="1" parent="1">
                    <mxGeometry x="3322.58" y="1489.5" width="40" height="40" as="geometry"/>
                </mxCell>
                <mxCell id="3770" value="" style="endArrow=none;html=1;rounded=0;strokeColor=#000000;entryX=0.5;entryY=0;entryDx=0;entryDy=0;exitX=0.5;exitY=1;exitDx=0;exitDy=0;strokeWidth=4;" edge="1" parent="1" source="3769" target="3769">
                    <mxGeometry width="50" height="50" relative="1" as="geometry">
                        <mxPoint x="3332.17" y="1496.5" as="sourcePoint"/>
                        <mxPoint x="3382.17" y="1546.5" as="targetPoint"/>
                    </mxGeometry>
                </mxCell>
                <mxCell id="3771" value="" style="endArrow=none;html=1;rounded=0;strokeColor=#000000;entryX=0;entryY=0.5;entryDx=0;entryDy=0;exitX=1;exitY=0.5;exitDx=0;exitDy=0;strokeWidth=4;" edge="1" parent="1" source="3769" target="3769">
                    <mxGeometry width="50" height="50" relative="1" as="geometry">
                        <mxPoint x="3432.17" y="1546.5" as="sourcePoint"/>
                        <mxPoint x="3492.17" y="1546.5" as="targetPoint"/>
                    </mxGeometry>
                </mxCell>
                <mxCell id="3772" style="edgeStyle=orthogonalEdgeStyle;rounded=1;orthogonalLoop=1;jettySize=auto;html=1;exitX=1;exitY=0.5;exitDx=0;exitDy=0;entryX=1;entryY=0.5;entryDx=0;entryDy=0;fontSize=30;fontColor=#990000;startArrow=none;startFill=0;endArrow=classic;endFill=1;strokeWidth=4;endSize=0;startSize=6;" edge="1" parent="1" source="3773" target="3761">
                    <mxGeometry relative="1" as="geometry">
                        <Array as="points">
                            <mxPoint x="3342.58" y="1579.5"/>
                            <mxPoint x="3312.58" y="1579.5"/>
                        </Array>
                    </mxGeometry>
                </mxCell>
                <mxCell id="3773" value="" style="rounded=0;whiteSpace=wrap;html=1;glass=0;strokeColor=#000000;strokeWidth=4;fillColor=#FFD966;rotation=90;" vertex="1" parent="1">
                    <mxGeometry x="3332.58" y="1539.5" width="20" height="36" as="geometry"/>
                </mxCell>
                <mxCell id="3774" value="" style="endArrow=none;html=1;rounded=0;startSize=1;endSize=1;strokeColor=#000000;strokeWidth=4;jumpStyle=none;jumpSize=6;" edge="1" parent="1">
                    <mxGeometry width="50" height="50" relative="1" as="geometry">
                        <mxPoint x="3325.17" y="1546.67" as="sourcePoint"/>
                        <mxPoint x="3335.17" y="1556.67" as="targetPoint"/>
                    </mxGeometry>
                </mxCell>
                <mxCell id="3775" value="" style="endArrow=none;html=1;rounded=0;startSize=1;endSize=1;strokeColor=#000000;strokeWidth=4;jumpStyle=none;jumpSize=6;" edge="1" parent="1">
                    <mxGeometry width="50" height="50" relative="1" as="geometry">
                        <mxPoint x="3335.17" y="1556.67" as="sourcePoint"/>
                        <mxPoint x="3325.17" y="1566.67" as="targetPoint"/>
                    </mxGeometry>
                </mxCell>
                <mxCell id="3776" style="edgeStyle=orthogonalEdgeStyle;rounded=0;jumpStyle=none;jumpSize=6;orthogonalLoop=1;jettySize=auto;html=1;entryX=0;entryY=0.5;entryDx=0;entryDy=0;startArrow=none;startFill=0;endArrow=classic;endFill=1;startSize=1;endSize=1;strokeColor=#000000;strokeWidth=4;" edge="1" parent="1" source="3769" target="3773">
                    <mxGeometry relative="1" as="geometry"/>
                </mxCell>
                <mxCell id="3777" style="edgeStyle=orthogonalEdgeStyle;rounded=0;orthogonalLoop=1;jettySize=auto;html=1;fontSize=30;fontColor=#990000;startArrow=none;startFill=0;endArrow=classic;endFill=1;strokeWidth=5;exitX=1;exitY=0.5;exitDx=0;exitDy=0;" edge="1" parent="1" source="3778">
                    <mxGeometry relative="1" as="geometry">
                        <mxPoint x="3313.17" y="1867.5" as="targetPoint"/>
                        <Array as="points">
                            <mxPoint x="3313.17" y="1847.5"/>
                            <mxPoint x="3313.17" y="1847.5"/>
                        </Array>
                    </mxGeometry>
                </mxCell>
                <mxCell id="3778" value="" style="ellipse;whiteSpace=wrap;html=1;aspect=fixed;fontSize=30;strokeColor=#000000;fillColor=#FFD966;opacity=80;rotation=90;" vertex="1" parent="1">
                    <mxGeometry x="3225.17" y="1648.5" width="174.83" height="174.83" as="geometry"/>
                </mxCell>
                <mxCell id="3779" style="edgeStyle=none;jumpStyle=arc;html=1;entryX=0.5;entryY=1;entryDx=0;entryDy=0;strokeWidth=3;" edge="1" parent="1" source="3780" target="3786">
                    <mxGeometry relative="1" as="geometry"/>
                </mxCell>
                <mxCell id="3780" value="" style="ellipse;whiteSpace=wrap;html=1;aspect=fixed;fillColor=#67AB9F;strokeWidth=4;strokeColor=#000000;rotation=90;" vertex="1" parent="1">
                    <mxGeometry x="3241.02" y="1708.5" width="40" height="40" as="geometry"/>
                </mxCell>
                <mxCell id="3781" value="" style="endArrow=none;html=1;rounded=0;strokeColor=#000000;strokeWidth=4;exitX=0;exitY=0;exitDx=0;exitDy=0;entryX=1;entryY=1;entryDx=0;entryDy=0;" edge="1" parent="1" source="3780" target="3780">
                    <mxGeometry width="50" height="50" relative="1" as="geometry">
                        <mxPoint x="3347.17" y="1720.5" as="sourcePoint"/>
                        <mxPoint x="3378.17" y="1745.5" as="targetPoint"/>
                    </mxGeometry>
                </mxCell>
                <mxCell id="3782" value="" style="endArrow=none;html=1;rounded=0;strokeColor=#000000;strokeWidth=4;exitX=0;exitY=1;exitDx=0;exitDy=0;entryX=1;entryY=0;entryDx=0;entryDy=0;" edge="1" parent="1" source="3780" target="3780">
                    <mxGeometry width="50" height="50" relative="1" as="geometry">
                        <mxPoint x="3402.17" y="1676.5" as="sourcePoint"/>
                        <mxPoint x="3367.17" y="1704.5" as="targetPoint"/>
                    </mxGeometry>
                </mxCell>
                <mxCell id="3783" style="edgeStyle=none;jumpStyle=arc;html=1;entryX=0;entryY=0.5;entryDx=0;entryDy=0;strokeWidth=3;" edge="1" parent="1" source="3784" target="3780">
                    <mxGeometry relative="1" as="geometry">
                        <Array as="points">
                            <mxPoint x="3260.58" y="1682.5"/>
                        </Array>
                    </mxGeometry>
                </mxCell>
                <mxCell id="3784" value="" style="whiteSpace=wrap;html=1;aspect=fixed;fillColor=#dae8fc;strokeColor=#000000;strokeWidth=4;rotation=90;" vertex="1" parent="1">
                    <mxGeometry x="3281.02" y="1668.5" width="27.5" height="27.5" as="geometry"/>
                </mxCell>
                <mxCell id="3785" style="edgeStyle=none;jumpStyle=arc;html=1;exitX=0;exitY=0.5;exitDx=0;exitDy=0;entryX=0;entryY=0.5;entryDx=0;entryDy=0;strokeWidth=3;startArrow=classic;startFill=1;endArrow=none;endFill=0;" edge="1" parent="1" source="3786" target="3778">
                    <mxGeometry relative="1" as="geometry">
                        <Array as="points">
                            <mxPoint x="3343.58" y="1668.5"/>
                            <mxPoint x="3312.58" y="1668.5"/>
                        </Array>
                    </mxGeometry>
                </mxCell>
                <mxCell id="3786" value="" style="ellipse;whiteSpace=wrap;html=1;aspect=fixed;fillColor=#e1d5e7;strokeColor=#000000;strokeWidth=4;rotation=90;" vertex="1" parent="1">
                    <mxGeometry x="3322.58" y="1708.5" width="40" height="40" as="geometry"/>
                </mxCell>
                <mxCell id="3787" value="" style="endArrow=none;html=1;rounded=0;strokeColor=#000000;entryX=0.5;entryY=0;entryDx=0;entryDy=0;exitX=0.5;exitY=1;exitDx=0;exitDy=0;strokeWidth=4;" edge="1" parent="1" source="3786" target="3786">
                    <mxGeometry width="50" height="50" relative="1" as="geometry">
                        <mxPoint x="3332.17" y="1715.5" as="sourcePoint"/>
                        <mxPoint x="3382.17" y="1765.5" as="targetPoint"/>
                    </mxGeometry>
                </mxCell>
                <mxCell id="3788" value="" style="endArrow=none;html=1;rounded=0;strokeColor=#000000;entryX=0;entryY=0.5;entryDx=0;entryDy=0;exitX=1;exitY=0.5;exitDx=0;exitDy=0;strokeWidth=4;" edge="1" parent="1" source="3786" target="3786">
                    <mxGeometry width="50" height="50" relative="1" as="geometry">
                        <mxPoint x="3432.17" y="1765.5" as="sourcePoint"/>
                        <mxPoint x="3492.17" y="1765.5" as="targetPoint"/>
                    </mxGeometry>
                </mxCell>
                <mxCell id="3789" style="edgeStyle=orthogonalEdgeStyle;rounded=1;orthogonalLoop=1;jettySize=auto;html=1;exitX=1;exitY=0.5;exitDx=0;exitDy=0;entryX=1;entryY=0.5;entryDx=0;entryDy=0;fontSize=30;fontColor=#990000;startArrow=none;startFill=0;endArrow=classic;endFill=1;strokeWidth=4;endSize=0;startSize=6;" edge="1" parent="1" source="3790" target="3778">
                    <mxGeometry relative="1" as="geometry">
                        <Array as="points">
                            <mxPoint x="3342.58" y="1798.5"/>
                            <mxPoint x="3312.58" y="1798.5"/>
                        </Array>
                    </mxGeometry>
                </mxCell>
                <mxCell id="3790" value="" style="rounded=0;whiteSpace=wrap;html=1;glass=0;strokeColor=#000000;strokeWidth=4;fillColor=#FFD966;rotation=90;" vertex="1" parent="1">
                    <mxGeometry x="3332.58" y="1758.5" width="20" height="36" as="geometry"/>
                </mxCell>
                <mxCell id="3791" value="" style="endArrow=none;html=1;rounded=0;startSize=1;endSize=1;strokeColor=#000000;strokeWidth=4;jumpStyle=none;jumpSize=6;" edge="1" parent="1">
                    <mxGeometry width="50" height="50" relative="1" as="geometry">
                        <mxPoint x="3325.17" y="1765.67" as="sourcePoint"/>
                        <mxPoint x="3335.17" y="1775.67" as="targetPoint"/>
                    </mxGeometry>
                </mxCell>
                <mxCell id="3792" value="" style="endArrow=none;html=1;rounded=0;startSize=1;endSize=1;strokeColor=#000000;strokeWidth=4;jumpStyle=none;jumpSize=6;" edge="1" parent="1">
                    <mxGeometry width="50" height="50" relative="1" as="geometry">
                        <mxPoint x="3335.17" y="1775.67" as="sourcePoint"/>
                        <mxPoint x="3325.17" y="1785.67" as="targetPoint"/>
                    </mxGeometry>
                </mxCell>
                <mxCell id="3793" style="edgeStyle=orthogonalEdgeStyle;rounded=0;jumpStyle=none;jumpSize=6;orthogonalLoop=1;jettySize=auto;html=1;entryX=0;entryY=0.5;entryDx=0;entryDy=0;startArrow=none;startFill=0;endArrow=classic;endFill=1;startSize=1;endSize=1;strokeColor=#000000;strokeWidth=4;" edge="1" parent="1" source="3786" target="3790">
                    <mxGeometry relative="1" as="geometry"/>
                </mxCell>
                <mxCell id="3794" style="edgeStyle=none;jumpStyle=arc;html=1;entryX=0.5;entryY=1;entryDx=0;entryDy=0;startArrow=none;startFill=0;endArrow=classic;endFill=1;startSize=6;endSize=0;strokeWidth=4;" edge="1" parent="1" source="3796" target="3712">
                    <mxGeometry relative="1" as="geometry"/>
                </mxCell>
                <mxCell id="3795" style="edgeStyle=none;jumpStyle=arc;html=1;exitX=0.25;exitY=1;exitDx=0;exitDy=0;startArrow=classic;startFill=1;endArrow=none;endFill=0;startSize=6;endSize=0;strokeColor=#D6B656;strokeWidth=4;" edge="1" parent="1" source="3796">
                    <mxGeometry relative="1" as="geometry">
                        <mxPoint x="3132.17" y="609.0116279069771" as="targetPoint"/>
                    </mxGeometry>
                </mxCell>
                <mxCell id="3796" value="" style="shape=trapezoid;perimeter=trapezoidPerimeter;whiteSpace=wrap;html=1;fixedSize=1;rounded=0;glass=0;strokeColor=#000000;strokeWidth=4;fillColor=#fad7ac;rotation=90;" vertex="1" parent="1">
                    <mxGeometry x="3142.17" y="615.5" width="86" height="30" as="geometry"/>
                </mxCell>
                <mxCell id="3797" style="edgeStyle=none;jumpStyle=arc;html=1;entryX=0.5;entryY=1;entryDx=0;entryDy=0;startArrow=none;startFill=0;endArrow=classic;endFill=1;startSize=6;endSize=0;strokeWidth=4;" edge="1" parent="1" source="3798">
                    <mxGeometry relative="1" as="geometry">
                        <mxPoint x="3241.0200000000004" y="849.5" as="targetPoint"/>
                    </mxGeometry>
                </mxCell>
                <mxCell id="3798" value="" style="shape=trapezoid;perimeter=trapezoidPerimeter;whiteSpace=wrap;html=1;fixedSize=1;rounded=0;glass=0;strokeColor=#000000;strokeWidth=4;fillColor=#fad7ac;rotation=90;" vertex="1" parent="1">
                    <mxGeometry x="3142.5800000000004" y="834.5" width="86" height="30" as="geometry"/>
                </mxCell>
                <mxCell id="3799" style="edgeStyle=none;jumpStyle=arc;html=1;entryX=0.5;entryY=1;entryDx=0;entryDy=0;startArrow=none;startFill=0;endArrow=classic;endFill=1;startSize=6;endSize=0;strokeWidth=4;" edge="1" parent="1" source="3800">
                    <mxGeometry relative="1" as="geometry">
                        <mxPoint x="3241.0200000000004" y="1069.5" as="targetPoint"/>
                    </mxGeometry>
                </mxCell>
                <mxCell id="3800" value="" style="shape=trapezoid;perimeter=trapezoidPerimeter;whiteSpace=wrap;html=1;fixedSize=1;rounded=0;glass=0;strokeColor=#000000;strokeWidth=4;fillColor=#fad7ac;rotation=90;" vertex="1" parent="1">
                    <mxGeometry x="3142.5800000000004" y="1054.5" width="86" height="30" as="geometry"/>
                </mxCell>
                <mxCell id="3801" style="edgeStyle=none;jumpStyle=arc;html=1;entryX=0.5;entryY=1;entryDx=0;entryDy=0;startArrow=none;startFill=0;endArrow=classic;endFill=1;startSize=6;endSize=0;strokeWidth=4;" edge="1" parent="1" source="3802">
                    <mxGeometry relative="1" as="geometry">
                        <mxPoint x="3240.6100000000006" y="1288.5" as="targetPoint"/>
                    </mxGeometry>
                </mxCell>
                <mxCell id="3802" value="" style="shape=trapezoid;perimeter=trapezoidPerimeter;whiteSpace=wrap;html=1;fixedSize=1;rounded=0;glass=0;strokeColor=#000000;strokeWidth=4;fillColor=#fad7ac;rotation=90;" vertex="1" parent="1">
                    <mxGeometry x="3142.1700000000005" y="1273.5" width="86" height="30" as="geometry"/>
                </mxCell>
                <mxCell id="3803" style="edgeStyle=none;jumpStyle=arc;html=1;entryX=0.5;entryY=1;entryDx=0;entryDy=0;startArrow=none;startFill=0;endArrow=classic;endFill=1;startSize=6;endSize=0;strokeWidth=4;" edge="1" parent="1" source="3804">
                    <mxGeometry relative="1" as="geometry">
                        <mxPoint x="3241.0200000000004" y="1509.5" as="targetPoint"/>
                    </mxGeometry>
                </mxCell>
                <mxCell id="3804" value="" style="shape=trapezoid;perimeter=trapezoidPerimeter;whiteSpace=wrap;html=1;fixedSize=1;rounded=0;glass=0;strokeColor=#000000;strokeWidth=4;fillColor=#fad7ac;rotation=90;" vertex="1" parent="1">
                    <mxGeometry x="3142.5800000000004" y="1494.5" width="86" height="30" as="geometry"/>
                </mxCell>
                <mxCell id="3805" style="edgeStyle=none;jumpStyle=arc;html=1;entryX=0.5;entryY=1;entryDx=0;entryDy=0;startArrow=none;startFill=0;endArrow=classic;endFill=1;startSize=6;endSize=0;strokeWidth=4;" edge="1" parent="1" source="3806">
                    <mxGeometry relative="1" as="geometry">
                        <mxPoint x="3241.0200000000004" y="1728.5" as="targetPoint"/>
                    </mxGeometry>
                </mxCell>
                <mxCell id="3806" value="" style="shape=trapezoid;perimeter=trapezoidPerimeter;whiteSpace=wrap;html=1;fixedSize=1;rounded=0;glass=0;strokeColor=#000000;strokeWidth=4;fillColor=#fad7ac;rotation=90;" vertex="1" parent="1">
                    <mxGeometry x="3142.5800000000004" y="1713.5" width="86" height="30" as="geometry"/>
                </mxCell>
                <mxCell id="3807" value="" style="endArrow=none;html=1;startSize=6;endSize=0;strokeWidth=4;jumpStyle=none;strokeColor=#B09500;fillColor=#e3c800;" edge="1" parent="1">
                    <mxGeometry width="50" height="50" relative="1" as="geometry">
                        <mxPoint x="3128.17" y="1039.5" as="sourcePoint"/>
                        <mxPoint x="3128.17" y="599.5" as="targetPoint"/>
                    </mxGeometry>
                </mxCell>
                <mxCell id="3808" style="edgeStyle=none;jumpStyle=arc;html=1;exitX=0.25;exitY=1;exitDx=0;exitDy=0;startArrow=classic;startFill=1;endArrow=none;endFill=0;startSize=6;endSize=0;strokeColor=#D6B656;strokeWidth=4;" edge="1" parent="1">
                    <mxGeometry relative="1" as="geometry">
                        <mxPoint x="3132.17" y="829.1916279069774" as="targetPoint"/>
                        <mxPoint x="3170.170000000001" y="829.1800000000003" as="sourcePoint"/>
                    </mxGeometry>
                </mxCell>
                <mxCell id="3809" style="edgeStyle=none;jumpStyle=arc;html=1;exitX=0.25;exitY=1;exitDx=0;exitDy=0;startArrow=classic;startFill=1;endArrow=none;endFill=0;startSize=6;endSize=0;strokeColor=#D6B656;strokeWidth=4;" edge="1" parent="1">
                    <mxGeometry relative="1" as="geometry">
                        <mxPoint x="3128.17" y="1037.011627906979" as="targetPoint"/>
                        <mxPoint x="3166.17" y="1037" as="sourcePoint"/>
                    </mxGeometry>
                </mxCell>
                <mxCell id="3810" style="edgeStyle=none;jumpStyle=arc;html=1;exitX=0.75;exitY=1;exitDx=0;exitDy=0;startArrow=classic;startFill=1;endArrow=none;endFill=0;startSize=6;endSize=0;strokeColor=#990000;strokeWidth=4;" edge="1" parent="1" source="3796">
                    <mxGeometry relative="1" as="geometry">
                        <mxPoint x="3082.17" y="651.5" as="targetPoint"/>
                    </mxGeometry>
                </mxCell>
                <mxCell id="3811" style="edgeStyle=none;jumpStyle=arc;html=1;exitX=0.75;exitY=1;exitDx=0;exitDy=0;startArrow=classic;startFill=1;endArrow=none;endFill=0;startSize=6;endSize=0;strokeColor=#990000;strokeWidth=4;" edge="1" parent="1">
                    <mxGeometry relative="1" as="geometry">
                        <mxPoint x="3082.17" y="868.8299999999999" as="targetPoint"/>
                        <mxPoint x="3170.170000000001" y="869.3299999999999" as="sourcePoint"/>
                    </mxGeometry>
                </mxCell>
                <mxCell id="3812" style="edgeStyle=none;jumpStyle=arc;html=1;exitX=0.75;exitY=1;exitDx=0;exitDy=0;startArrow=classic;startFill=1;endArrow=none;endFill=0;startSize=6;endSize=0;strokeColor=#990000;strokeWidth=4;" edge="1" parent="1">
                    <mxGeometry relative="1" as="geometry">
                        <mxPoint x="3082.17" y="1089.5" as="targetPoint"/>
                        <mxPoint x="3170.170000000001" y="1090" as="sourcePoint"/>
                    </mxGeometry>
                </mxCell>
                <mxCell id="3813" style="edgeStyle=none;jumpStyle=arc;html=1;exitX=0.25;exitY=1;exitDx=0;exitDy=0;startArrow=classic;startFill=1;endArrow=none;endFill=0;startSize=6;endSize=0;strokeColor=#D6B656;strokeWidth=4;" edge="1" parent="1">
                    <mxGeometry relative="1" as="geometry">
                        <mxPoint x="3132.17" y="1266.9016279069765" as="targetPoint"/>
                        <mxPoint x="3170.170000000001" y="1266.8900000000003" as="sourcePoint"/>
                    </mxGeometry>
                </mxCell>
                <mxCell id="3814" value="" style="endArrow=none;html=1;startSize=6;endSize=0;strokeWidth=4;jumpStyle=none;strokeColor=#B09500;fillColor=#e3c800;" edge="1" parent="1">
                    <mxGeometry width="50" height="50" relative="1" as="geometry">
                        <mxPoint x="3128.17" y="1709.5" as="sourcePoint"/>
                        <mxPoint x="3128.17" y="1257.3899999999994" as="targetPoint"/>
                    </mxGeometry>
                </mxCell>
                <mxCell id="3815" style="edgeStyle=none;jumpStyle=arc;html=1;exitX=0.25;exitY=1;exitDx=0;exitDy=0;startArrow=classic;startFill=1;endArrow=none;endFill=0;startSize=6;endSize=0;strokeColor=#D6B656;strokeWidth=4;" edge="1" parent="1">
                    <mxGeometry relative="1" as="geometry">
                        <mxPoint x="3132.17" y="1487.0816279069768" as="targetPoint"/>
                        <mxPoint x="3170.170000000001" y="1487.0700000000006" as="sourcePoint"/>
                    </mxGeometry>
                </mxCell>
                <mxCell id="3816" style="edgeStyle=none;jumpStyle=arc;html=1;exitX=0.25;exitY=1;exitDx=0;exitDy=0;startArrow=classic;startFill=1;endArrow=none;endFill=0;startSize=6;endSize=0;strokeColor=#D6B656;strokeWidth=4;" edge="1" parent="1">
                    <mxGeometry relative="1" as="geometry">
                        <mxPoint x="3128.17" y="1708.181627906979" as="targetPoint"/>
                        <mxPoint x="3166.17" y="1708.17" as="sourcePoint"/>
                    </mxGeometry>
                </mxCell>
                <mxCell id="3817" style="edgeStyle=none;jumpStyle=arc;html=1;exitX=0.75;exitY=1;exitDx=0;exitDy=0;startArrow=classic;startFill=1;endArrow=none;endFill=0;startSize=6;endSize=0;strokeColor=#990000;strokeWidth=4;" edge="1" parent="1">
                    <mxGeometry relative="1" as="geometry">
                        <mxPoint x="3082.17" y="1309.3900000000003" as="targetPoint"/>
                        <mxPoint x="3170.170000000001" y="1309.8899999999994" as="sourcePoint"/>
                    </mxGeometry>
                </mxCell>
                <mxCell id="3818" style="edgeStyle=none;jumpStyle=arc;html=1;exitX=0.75;exitY=1;exitDx=0;exitDy=0;startArrow=classic;startFill=1;endArrow=none;endFill=0;startSize=6;endSize=0;strokeColor=#990000;strokeWidth=4;" edge="1" parent="1">
                    <mxGeometry relative="1" as="geometry">
                        <mxPoint x="3082.17" y="1526.7199999999993" as="targetPoint"/>
                        <mxPoint x="3170.170000000001" y="1527.2200000000003" as="sourcePoint"/>
                    </mxGeometry>
                </mxCell>
                <mxCell id="3819" style="edgeStyle=none;jumpStyle=arc;html=1;exitX=0.75;exitY=1;exitDx=0;exitDy=0;startArrow=classic;startFill=1;endArrow=none;endFill=0;startSize=6;endSize=0;strokeColor=#990000;strokeWidth=4;" edge="1" parent="1">
                    <mxGeometry relative="1" as="geometry">
                        <mxPoint x="3082.17" y="1747.3899999999994" as="targetPoint"/>
                        <mxPoint x="3170.170000000001" y="1747.8900000000003" as="sourcePoint"/>
                    </mxGeometry>
                </mxCell>
                <mxCell id="3820" value="" style="endArrow=none;html=1;startSize=6;endSize=0;strokeWidth=4;jumpStyle=none;strokeColor=#990000;" edge="1" parent="1">
                    <mxGeometry width="50" height="50" relative="1" as="geometry">
                        <mxPoint x="3082.17" y="1749.5" as="sourcePoint"/>
                        <mxPoint x="3082" y="490" as="targetPoint"/>
                    </mxGeometry>
                </mxCell>
                <mxCell id="3823" value="" style="endArrow=classic;html=1;rounded=0;strokeWidth=10;jumpStyle=arc;strokeColor=#000000;endFill=1;dashed=1;startArrow=classic;startFill=1;" edge="1" parent="1">
                    <mxGeometry x="-750.4100000000002" y="542.96" width="50" height="50" as="geometry">
                        <mxPoint x="3439.59" y="629.9699999999993" as="sourcePoint"/>
                        <mxPoint x="3579.5899999999983" y="629.9699999999993" as="targetPoint"/>
                    </mxGeometry>
                </mxCell>
                <mxCell id="3824" value="" style="endArrow=classic;html=1;rounded=0;strokeWidth=10;jumpStyle=arc;strokeColor=#000000;endFill=1;dashed=1;startArrow=classic;startFill=1;" edge="1" parent="1">
                    <mxGeometry x="-750.0000000000001" y="761.96" width="50" height="50" as="geometry">
                        <mxPoint x="3440" y="848.9699999999993" as="sourcePoint"/>
                        <mxPoint x="3579.999999999998" y="848.9699999999993" as="targetPoint"/>
                    </mxGeometry>
                </mxCell>
                <mxCell id="3825" value="" style="endArrow=classic;html=1;rounded=0;strokeWidth=10;jumpStyle=arc;strokeColor=#000000;endFill=1;dashed=1;startArrow=classic;startFill=1;" edge="1" parent="1">
                    <mxGeometry x="-750.4100000000002" y="982.4899999999998" width="50" height="50" as="geometry">
                        <mxPoint x="3439.59" y="1069.5" as="sourcePoint"/>
                        <mxPoint x="3579.5899999999983" y="1069.5" as="targetPoint"/>
                    </mxGeometry>
                </mxCell>
                <mxCell id="3826" value="" style="endArrow=classic;html=1;rounded=0;strokeWidth=10;jumpStyle=arc;strokeColor=#000000;endFill=1;dashed=1;startArrow=classic;startFill=1;" edge="1" parent="1">
                    <mxGeometry x="-750.0000000000001" y="1201.4899999999998" width="50" height="50" as="geometry">
                        <mxPoint x="3440" y="1288.4999999999982" as="sourcePoint"/>
                        <mxPoint x="3579.999999999998" y="1288.4999999999982" as="targetPoint"/>
                    </mxGeometry>
                </mxCell>
                <mxCell id="3827" value="" style="endArrow=classic;html=1;rounded=0;strokeWidth=10;jumpStyle=arc;strokeColor=#000000;endFill=1;dashed=1;startArrow=classic;startFill=1;" edge="1" parent="1">
                    <mxGeometry x="-750.4100000000002" y="1422.4899999999998" width="50" height="50" as="geometry">
                        <mxPoint x="3439.59" y="1509.5" as="sourcePoint"/>
                        <mxPoint x="3579.5899999999983" y="1509.5" as="targetPoint"/>
                    </mxGeometry>
                </mxCell>
                <mxCell id="3828" value="" style="endArrow=classic;html=1;rounded=0;strokeWidth=10;jumpStyle=arc;strokeColor=#000000;endFill=1;dashed=1;startArrow=classic;startFill=1;" edge="1" parent="1">
                    <mxGeometry x="-750.0000000000001" y="1641.4899999999998" width="50" height="50" as="geometry">
                        <mxPoint x="3440" y="1728.4999999999982" as="sourcePoint"/>
                        <mxPoint x="3579.999999999998" y="1728.4999999999982" as="targetPoint"/>
                    </mxGeometry>
                </mxCell>
                <mxCell id="3968" value="" style="rounded=1;whiteSpace=wrap;html=1;fillColor=#FFCCCC;opacity=40;strokeColor=#000000;glass=0;strokeWidth=3;" vertex="1" parent="1">
                    <mxGeometry x="2850" y="510" width="360" height="1310" as="geometry"/>
                </mxCell>
                <mxCell id="3971" value="L1: 3x3 Broadcast&lt;br&gt;&amp;amp; 1x1 Channel Lines" style="text;html=1;strokeColor=none;fillColor=none;align=left;verticalAlign=middle;whiteSpace=wrap;rounded=0;glass=0;fontSize=43;fontStyle=1" vertex="1" parent="1">
                    <mxGeometry x="2868.84" y="1590" width="269.59" height="130" as="geometry"/>
                </mxCell>
                <mxCell id="3974" style="edgeStyle=none;jumpStyle=none;html=1;startArrow=none;startFill=0;endArrow=none;endFill=0;startSize=5;endSize=0;strokeColor=#B09500;strokeWidth=4;fillColor=#e3c800;" edge="1" parent="1" source="3973">
                    <mxGeometry relative="1" as="geometry">
                        <mxPoint x="2330" y="360" as="targetPoint"/>
                    </mxGeometry>
                </mxCell>
                <mxCell id="3975" style="edgeStyle=none;jumpStyle=none;html=1;startArrow=none;startFill=0;endArrow=none;endFill=0;startSize=5;endSize=0;strokeColor=#B09500;strokeWidth=4;fillColor=#e3c800;" edge="1" parent="1">
                    <mxGeometry relative="1" as="geometry">
                        <mxPoint x="2250" y="490" as="targetPoint"/>
                        <mxPoint x="2250.022222222222" y="410" as="sourcePoint"/>
                        <Array as="points">
                            <mxPoint x="2250" y="450"/>
                        </Array>
                    </mxGeometry>
                </mxCell>
                <mxCell id="3973" value="&lt;span style=&quot;font-family: &amp;#34;arial unicode ms&amp;#34; , &amp;#34;lucida sans unicode&amp;#34; , sans-serif ; font-size: 34px ; font-weight: 400&quot;&gt;Î”(L-3)&lt;/span&gt;" style="whiteSpace=wrap;html=1;aspect=fixed;fillColor=#fff2cc;strokeColor=#000000;rotation=90;strokeWidth=4;horizontal=0;fontStyle=1" vertex="1" parent="1">
                    <mxGeometry x="2201.05" y="310" width="100" height="100" as="geometry"/>
                </mxCell>
                <mxCell id="3978" style="edgeStyle=none;jumpStyle=none;html=1;entryX=0.5;entryY=0;entryDx=0;entryDy=0;startArrow=none;startFill=0;endArrow=none;endFill=0;startSize=5;endSize=0;strokeColor=#B09500;strokeWidth=4;fillColor=#e3c800;" edge="1" parent="1" source="3976" target="3977">
                    <mxGeometry relative="1" as="geometry"/>
                </mxCell>
                <mxCell id="3981" style="edgeStyle=none;jumpStyle=none;html=1;entryX=0.75;entryY=1;entryDx=0;entryDy=0;startArrow=none;startFill=0;endArrow=none;endFill=0;startSize=5;endSize=0;strokeColor=#B09500;strokeWidth=4;fillColor=#e3c800;" edge="1" parent="1" source="3976" target="780">
                    <mxGeometry relative="1" as="geometry">
                        <Array as="points">
                            <mxPoint x="3104" y="210"/>
                            <mxPoint x="2939" y="210"/>
                        </Array>
                    </mxGeometry>
                </mxCell>
                <mxCell id="3976" value="&lt;span style=&quot;font-family: &amp;#34;arial unicode ms&amp;#34; , &amp;#34;lucida sans unicode&amp;#34; , sans-serif ; font-size: 34px ; font-weight: 400&quot;&gt;Î”(L-3)&lt;/span&gt;" style="whiteSpace=wrap;html=1;aspect=fixed;fillColor=#fff2cc;strokeColor=#000000;rotation=90;strokeWidth=4;horizontal=0;fontStyle=1" vertex="1" parent="1">
                    <mxGeometry x="3054.47" y="310" width="100" height="100" as="geometry"/>
                </mxCell>
                <mxCell id="3977" value="&lt;span style=&quot;font-family: &amp;#34;arial unicode ms&amp;#34; , &amp;#34;lucida sans unicode&amp;#34; , sans-serif ; font-size: 34px ; font-weight: 400&quot;&gt;Î”(L-3)&lt;/span&gt;" style="whiteSpace=wrap;html=1;aspect=fixed;fillColor=#fff2cc;strokeColor=#000000;rotation=90;strokeWidth=4;horizontal=0;fontStyle=1" vertex="1" parent="1">
                    <mxGeometry x="2905.52" y="310" width="100" height="100" as="geometry"/>
                </mxCell>
                <mxCell id="3822" style="edgeStyle=none;jumpStyle=arc;html=1;startArrow=classic;startFill=1;endArrow=none;endFill=0;startSize=6;endSize=0;strokeColor=#B09500;strokeWidth=4;fillColor=#e3c800;entryX=1;entryY=0.5;entryDx=0;entryDy=0;" edge="1" parent="1" target="3977">
                    <mxGeometry relative="1" as="geometry">
                        <mxPoint x="2979.17" y="489.5" as="targetPoint"/>
                        <mxPoint x="3123.17" y="1487.5" as="sourcePoint"/>
                        <Array as="points">
                            <mxPoint x="2956" y="1488"/>
                        </Array>
                    </mxGeometry>
                </mxCell>
                <mxCell id="3821" style="edgeStyle=none;jumpStyle=arc;html=1;startArrow=classic;startFill=1;endArrow=none;endFill=0;startSize=6;endSize=0;strokeColor=#B09500;strokeWidth=4;fillColor=#e3c800;" edge="1" parent="1">
                    <mxGeometry relative="1" as="geometry">
                        <mxPoint x="3032" y="360" as="targetPoint"/>
                        <mxPoint x="3122.17" y="829.5" as="sourcePoint"/>
                        <Array as="points">
                            <mxPoint x="3032.17" y="829.5"/>
                        </Array>
                    </mxGeometry>
                </mxCell>
                <mxCell id="3982" style="edgeStyle=none;jumpStyle=none;html=1;startArrow=none;startFill=0;endArrow=none;endFill=0;startSize=5;endSize=0;strokeColor=#990000;strokeWidth=4;exitX=0.325;exitY=1.062;exitDx=0;exitDy=0;exitPerimeter=0;" edge="1" parent="1" source="780">
                    <mxGeometry relative="1" as="geometry">
                        <mxPoint x="2370" y="490" as="targetPoint"/>
                        <Array as="points">
                            <mxPoint x="2600" y="490"/>
                        </Array>
                    </mxGeometry>
                </mxCell>
                <mxCell id="3983" style="edgeStyle=none;jumpStyle=none;html=1;startArrow=none;startFill=0;endArrow=none;endFill=0;startSize=5;endSize=0;strokeColor=#990000;strokeWidth=4;exitX=0.872;exitY=0.965;exitDx=0;exitDy=0;exitPerimeter=0;" edge="1" parent="1" source="780">
                    <mxGeometry relative="1" as="geometry">
                        <mxPoint x="3080" y="490" as="targetPoint"/>
                        <Array as="points">
                            <mxPoint x="3036" y="170"/>
                            <mxPoint x="3200" y="170"/>
                            <mxPoint x="3200" y="490"/>
                        </Array>
                    </mxGeometry>
                </mxCell>
                <mxCell id="3988" value="" style="group;strokeWidth=3;strokeColor=#000000;rotation=90;container=0;" vertex="1" connectable="0" parent="1">
                    <mxGeometry x="3048.06" y="1144.92" width="1340" height="40" as="geometry"/>
                </mxCell>
                <mxCell id="3989" value="" style="rounded=0;whiteSpace=wrap;html=1;fillColor=#CCFFFF;strokeWidth=3;strokeColor=#000000;rotation=90;" vertex="1" parent="1">
                    <mxGeometry x="3023.06" y="1169.92" width="1390" height="40" as="geometry"/>
                </mxCell>
                <mxCell id="3990" value="" style="group;strokeWidth=3;strokeColor=none;rotation=90;" vertex="1" connectable="0" parent="1">
                    <mxGeometry x="3679.6299999999997" y="1184.42" width="76.85589519650655" height="20" as="geometry"/>
                </mxCell>
                <mxCell id="3991" value="" style="endArrow=none;html=1;rounded=0;strokeWidth=3;strokeColor=#000000;" edge="1" parent="3990">
                    <mxGeometry width="50" height="50" relative="1" as="geometry">
                        <mxPoint x="48" y="-28" as="sourcePoint"/>
                        <mxPoint x="48" y="1" as="targetPoint"/>
                    </mxGeometry>
                </mxCell>
                <mxCell id="3992" value="" style="endArrow=none;html=1;rounded=0;strokeWidth=3;strokeColor=#000000;" edge="1" parent="3990">
                    <mxGeometry width="50" height="50" relative="1" as="geometry">
                        <mxPoint x="48" y="1" as="sourcePoint"/>
                        <mxPoint x="28" y="19" as="targetPoint"/>
                    </mxGeometry>
                </mxCell>
                <mxCell id="3993" value="" style="endArrow=none;html=1;rounded=0;strokeWidth=3;strokeColor=#000000;" edge="1" parent="3990">
                    <mxGeometry width="50" height="50" relative="1" as="geometry">
                        <mxPoint x="28" y="1" as="sourcePoint"/>
                        <mxPoint x="48" y="19" as="targetPoint"/>
                    </mxGeometry>
                </mxCell>
                <mxCell id="3994" value="" style="endArrow=none;html=1;rounded=0;strokeWidth=3;strokeColor=#000000;" edge="1" parent="3990">
                    <mxGeometry width="50" height="50" relative="1" as="geometry">
                        <mxPoint x="48" y="19" as="sourcePoint"/>
                        <mxPoint x="48" y="48" as="targetPoint"/>
                    </mxGeometry>
                </mxCell>
                <mxCell id="3995" value="" style="endArrow=none;html=1;rounded=0;strokeWidth=3;strokeColor=#000000;" edge="1" parent="3990">
                    <mxGeometry width="50" height="50" relative="1" as="geometry">
                        <mxPoint x="28" y="19" as="sourcePoint"/>
                        <mxPoint x="28" y="48" as="targetPoint"/>
                    </mxGeometry>
                </mxCell>
                <mxCell id="3996" value="" style="endArrow=none;html=1;rounded=0;strokeWidth=3;strokeColor=#000000;" edge="1" parent="3990">
                    <mxGeometry width="50" height="50" relative="1" as="geometry">
                        <mxPoint x="28" y="-28" as="sourcePoint"/>
                        <mxPoint x="28" y="1" as="targetPoint"/>
                    </mxGeometry>
                </mxCell>
            </root>
        </mxGraphModel>
    </diagram>
</mxfile>